<svg id="Layer_1" data-name="Layer 1" xmlns="http://www.w3.org/2000/svg" viewBox="0 0 799.62 234.39"><defs><style>.cls-1{fill:#3b3b3c;}.cls-10,.cls-2{fill:#93c4ca;}.cls-3{fill:#5bb6c8;}.cls-4{fill:none;}.cls-5{fill:#8cbac0;}.cls-6{fill:#87b3b9;}.cls-7{fill:#54a7b7;}.cls-8{fill:#fdba54;}.cls-9{fill:#57aebe;}.cls-10,.cls-12{opacity:0.25;}.cls-11{fill:#efb050;}.cls-12{fill:#50a6b7;}</style></defs><title>djTutorialLogo</title><path class="cls-1" d="M278,76.5V26a1.24,1.24,0,0,1,1.41-1.41h20.38q6,0,9.49,3.36t3.44,9.49V65.06q0,6-3.44,9.45t-9.49,3.4H279.36A1.24,1.24,0,0,1,278,76.5Zm8.95-5.63h11.68q6,0,6-6.13V37.8q0-6.13-6-6.13H286.9c-.61,0-.91.28-.91.83V70A.8.8,0,0,0,286.9,70.87Z" transform="translate(-17.9 -8.81)"/><path class="cls-1" d="M339.61,77.91h-3.23q-6.13,0-9.49-3.4t-3.36-9.45V48.49q0-6.13,3.36-9.49t9.49-3.36h18.56q1.49,0,1.49,1.41V76.5q0,1.41-1.49,1.41h-5.22a1.24,1.24,0,0,1-1.41-1.41v-3H348Q346,77.91,339.61,77.91Zm8.7-14.09V43.52q0-.83-.91-.83h-9.86q-6,0-6,6.13V64.73q0,6.13,6,6.13h4Q348.3,70.87,348.31,63.82Z" transform="translate(-17.9 -8.81)"/><path class="cls-1" d="M369.27,42.69h-4a1.59,1.59,0,0,1-1.12-.29,1.45,1.45,0,0,1-.29-1V37.06a1.25,1.25,0,0,1,1.41-1.41h4a.73.73,0,0,0,.83-.83V27.36q0-1.41,1.49-1.41h5.22a1.25,1.25,0,0,1,1.41,1.41v7.46c0,.55.3.83.91.83h7.71q1.49,0,1.49,1.41v4.31q0,1.33-1.49,1.33h-7.71c-.61,0-.91.28-.91.83v21.3q0,6,6.21,6h3.23q1.49,0,1.49,1.41v4.31q0,1.33-1.49,1.33h-4.47q-6.13,0-9.61-3.31t-3.48-9.36V43.52A.73.73,0,0,0,369.27,42.69Z" transform="translate(-17.9 -8.81)"/><path class="cls-1" d="M413.6,77.91h-3.23q-6.13,0-9.49-3.4t-3.36-9.45V48.49q0-6.13,3.36-9.49t9.49-3.36h18.56q1.49,0,1.49,1.41V76.5q0,1.41-1.49,1.41h-5.22a1.24,1.24,0,0,1-1.41-1.41v-3H422Q420,77.91,413.6,77.91Zm8.7-14.09V43.52q0-.83-.91-.83h-9.86q-6,0-6,6.13V64.73q0,6.13,6,6.13h4Q422.3,70.87,422.3,63.82Z" transform="translate(-17.9 -8.81)"/><path class="cls-1" d="M433.26,77.71h5.22q1.41,0,1.41,1.33v39.11q0,6-3.4,9.45T427,131h-8.29q-6.13,0-9.53-3.4t-3.4-9.45v-7.46q0-1.41,1.49-1.41h5.22a1.25,1.25,0,0,1,1.41,1.41v7.13q0,6.13,6,6.13h5.88q6,0,6-6.13V79.12Q431.77,77.71,433.26,77.71Z" transform="translate(-17.9 -8.81)"/><path class="cls-1" d="M471.29,131H464q-6.13,0-9.49-3.4t-3.36-9.45V101.57q0-6.13,3.36-9.49T464,88.73h7.29q6,0,9.49,3.36t3.44,9.49v16.57q0,6-3.44,9.45T471.29,131Zm-6.13-7h5.05q6,0,6-6V101.82q0-6-6-6h-5.05q-3.15,0-4.56,1.45a6.41,6.41,0,0,0-1.41,4.6V117.9a6.4,6.4,0,0,0,1.41,4.6Q462,123.94,465.16,123.94Z" transform="translate(-17.9 -8.81)"/><path class="cls-1" d="M495.41,81.68V74.14a1.17,1.17,0,0,1,1.33-1.33h5.39a1.17,1.17,0,0,1,1.33,1.33v7.54q0,1.41-1.33,1.41h-5.39Q495.41,83.09,495.41,81.68Zm0,47.9V90.14q0-1.41,1.33-1.41H502a1.25,1.25,0,0,1,1.41,1.41v39.44a1.6,1.6,0,0,1-.29,1.12,1.45,1.45,0,0,1-1,.29h-5.3A1.24,1.24,0,0,1,495.41,129.58Z" transform="translate(-17.9 -8.81)"/><path class="cls-1" d="M522.17,131h-5.22a1.24,1.24,0,0,1-1.41-1.41V90.14a1.24,1.24,0,0,1,1.41-1.41h5.22a1.25,1.25,0,0,1,1.41,1.41v3h.33q2-4.39,8.37-4.39h3.65q6,0,9.28,3.31t3.23,9.53v28q0,1.41-1.49,1.41h-5.22a1.24,1.24,0,0,1-1.41-1.41V101.9q0-6.13-6-6.13h-3.89q-6.8,0-6.79,7v26.77A1.24,1.24,0,0,1,522.17,131Z" transform="translate(-17.9 -8.81)"/><path class="cls-1" d="M560.87,95.77h-4a1.6,1.6,0,0,1-1.12-.29,1.45,1.45,0,0,1-.29-1V90.14a1.25,1.25,0,0,1,1.41-1.41h4a.73.73,0,0,0,.83-.83V80.44q0-1.41,1.49-1.41h5.22a1.25,1.25,0,0,1,1.41,1.41V87.9q0,.83.91.83h7.71q1.49,0,1.49,1.41v4.31q0,1.33-1.49,1.33h-7.71q-.91,0-.91.83v21.3q0,6,6.21,6h3.23q1.49,0,1.49,1.41v4.31q0,1.33-1.49,1.33h-4.47q-6.13,0-9.61-3.31t-3.48-9.36V96.6A.73.73,0,0,0,560.87,95.77Z" transform="translate(-17.9 -8.81)"/><rect class="cls-2" x="413.98" y="42.48" width="25.14" height="25.14"/><rect class="cls-3" x="387.37" y="70.24" width="25.14" height="25.14"/><path class="cls-3" d="M465.11,69.18h-2.37a3.76,3.76,0,0,1-4.09-4.09V59.18a4,4,0,0,1,1.09-3,4.08,4.08,0,0,1,3-1.08h2.38a4.08,4.08,0,0,1,3,1.08,4,4,0,0,1,1.09,3v5.91a3.76,3.76,0,0,1-4.09,4.09ZM463,67.41h1.93A2.08,2.08,0,0,0,467.21,65v-5.8a2.08,2.08,0,0,0-2.32-2.38H463a2.08,2.08,0,0,0-2.32,2.38V65A2.08,2.08,0,0,0,463,67.41Z" transform="translate(-17.9 -8.81)"/><path class="cls-3" d="M473.53,73.21h-1.24a.34.34,0,0,1-.39-.39V55.48a.34.34,0,0,1,.39-.39h1.24a.34.34,0,0,1,.39.39v1.08H474a2.8,2.8,0,0,1,2.82-1.46h1.66a3.85,3.85,0,0,1,2.91,1.08,4.16,4.16,0,0,1,1,3v5.91a4.16,4.16,0,0,1-1,3,3.85,3.85,0,0,1-2.91,1.08h-1.66A2.8,2.8,0,0,1,474,67.72h-.11v5.11A.34.34,0,0,1,473.53,73.21Zm3-5.8h1.63a2.1,2.1,0,0,0,2.35-2.4V59.27a2.1,2.1,0,0,0-2.35-2.4h-1.63a2.58,2.58,0,0,0-1.91.66,2.54,2.54,0,0,0-.66,1.88v5.47a2.54,2.54,0,0,0,.66,1.88A2.58,2.58,0,0,0,476.49,67.41Z" transform="translate(-17.9 -8.81)"/><path class="cls-3" d="M494.83,69.18H489a3.76,3.76,0,0,1-4.09-4.09V59.18a4,4,0,0,1,1.09-3,4.08,4.08,0,0,1,3-1.08h2.32a3.74,3.74,0,0,1,4.06,4.09v3.51q0,.41-.39.41h-7.82c-.18,0-.28.08-.28.25V65a2.09,2.09,0,0,0,2.32,2.4h5.63a.34.34,0,0,1,.39.39v1Q495.21,69.18,494.83,69.18Zm-7.68-7.54h6a.24.24,0,0,0,.28-.28V59.24a2.08,2.08,0,0,0-2.32-2.38h-1.88a2.08,2.08,0,0,0-2.32,2.38v2.13A.24.24,0,0,0,487.15,61.64Z" transform="translate(-17.9 -8.81)"/><path class="cls-3" d="M499.55,69.18h-1.24a.34.34,0,0,1-.39-.39V55.48a.34.34,0,0,1,.39-.39h1.24a.34.34,0,0,1,.39.39v1.08H500a2.8,2.8,0,0,1,2.82-1.46h1.55a3.9,3.9,0,0,1,2.93,1.08,4.13,4.13,0,0,1,1,3v9.61a.34.34,0,0,1-.39.39h-1.24a.34.34,0,0,1-.39-.39V59.27q0-2.4-2.32-2.4H502.5a2.58,2.58,0,0,0-1.91.66,2.54,2.54,0,0,0-.66,1.88v9.39A.34.34,0,0,1,499.55,69.18Z" transform="translate(-17.9 -8.81)"/><path class="cls-3" d="M522.2,69.18h-4.92a.34.34,0,0,1-.39-.39v-1c0-.24.13-.36.39-.36h4.64q2.15,0,2.15-1.6v-.52a2,2,0,0,0-1.41-2l-3.26-1.38a4.8,4.8,0,0,1-2-1.37,3.32,3.32,0,0,1-.61-2.09q0-3.4,3.73-3.4H525a.34.34,0,0,1,.39.39v1q0,.36-.39.36h-4.17a2.34,2.34,0,0,0-1.5.41,1.22,1.22,0,0,0-.51,1v.47q0,1.16,1.58,1.77l3.26,1.46a3.59,3.59,0,0,1,1.95,1.46,5.17,5.17,0,0,1,.51,2.51Q526.15,69.18,522.2,69.18Z" transform="translate(-17.9 -8.81)"/><path class="cls-3" d="M534.74,69.18h-2.37a3.76,3.76,0,0,1-4.09-4.09V59.18a4,4,0,0,1,1.09-3,4.08,4.08,0,0,1,3-1.08h2.38a4.08,4.08,0,0,1,3,1.08,4,4,0,0,1,1.09,3v5.91a3.76,3.76,0,0,1-4.09,4.09Zm-2.15-1.77h1.93A2.08,2.08,0,0,0,536.84,65v-5.8a2.08,2.08,0,0,0-2.32-2.38h-1.93a2.08,2.08,0,0,0-2.32,2.38V65A2.08,2.08,0,0,0,532.58,67.41Z" transform="translate(-17.9 -8.81)"/><path class="cls-3" d="M546.92,69.18h-1.55a3.9,3.9,0,0,1-2.93-1.08,4.13,4.13,0,0,1-1-3V55.48a.34.34,0,0,1,.39-.39H543a.34.34,0,0,1,.39.39V65q0,2.4,2.29,2.4h1.58a2.58,2.58,0,0,0,1.91-.66,2.54,2.54,0,0,0,.66-1.88V55.48a.34.34,0,0,1,.39-.39h1.24a.34.34,0,0,1,.39.39V68.79a.34.34,0,0,1-.39.39h-1.24a.34.34,0,0,1-.39-.39V67.72h-.11A2.8,2.8,0,0,1,546.92,69.18Z" transform="translate(-17.9 -8.81)"/><path class="cls-3" d="M556.48,69.18h-1.24a.34.34,0,0,1-.39-.39V55.48a.34.34,0,0,1,.39-.39h1.24a.34.34,0,0,1,.39.39v1.1H557a2.4,2.4,0,0,1,1-1,3.62,3.62,0,0,1,1.82-.44h1.08c.24,0,.36.13.36.39v1a.44.44,0,0,1-.08.29.29.29,0,0,1-.28.07h-1.49a2.42,2.42,0,0,0-1.91.75,3,3,0,0,0-.66,2v9.14A.34.34,0,0,1,556.48,69.18Z" transform="translate(-17.9 -8.81)"/><path class="cls-3" d="M571.14,67.8v1q0,.36-.39.36h-4a3.76,3.76,0,0,1-4.09-4.09V59.18a4,4,0,0,1,1.09-3,4.08,4.08,0,0,1,3-1.08h4a.34.34,0,0,1,.39.39v1q0,.36-.39.36H567q-2.29,0-2.29,2.4V65q0,2.4,2.29,2.4h3.78A.34.34,0,0,1,571.14,67.8Z" transform="translate(-17.9 -8.81)"/><path class="cls-3" d="M582.8,69.18h-5.86a3.76,3.76,0,0,1-4.09-4.09V59.18a4,4,0,0,1,1.09-3,4.08,4.08,0,0,1,3-1.08h2.32a3.74,3.74,0,0,1,4.06,4.09v3.51q0,.41-.39.41h-7.82c-.18,0-.28.08-.28.25V65a2.09,2.09,0,0,0,2.32,2.4h5.63a.34.34,0,0,1,.39.39v1Q583.19,69.18,582.8,69.18Zm-7.68-7.54h6a.24.24,0,0,0,.28-.28V59.24A2.08,2.08,0,0,0,579,56.86h-1.88a2.08,2.08,0,0,0-2.32,2.38v2.13A.24.24,0,0,0,575.12,61.64Z" transform="translate(-17.9 -8.81)"/><rect class="cls-4" x="254" width="419.09" height="168.55"/><path class="cls-2" d="M434.57,226.28h-9.32q-2.44,0-2.44-2.33V168.34a1.08,1.08,0,0,0-1.22-1.22H408.93a2.06,2.06,0,0,1-2.33-2.33v-7.55a2.06,2.06,0,0,1,2.33-2.33h42a2.06,2.06,0,0,1,2.33,2.33v7.55a2.06,2.06,0,0,1-2.33,2.33H438.24q-1.33,0-1.33,1.22V224A2.06,2.06,0,0,1,434.57,226.28Z" transform="translate(-17.9 -8.81)"/><path class="cls-2" d="M482.64,226.28H479q-8.55,0-12.93-4.66t-4.38-13.43V172a2.06,2.06,0,0,1,2.33-2.33h9.44a2.06,2.06,0,0,1,2.33,2.33v35.52q0,3.55,1.5,5t4.94,1.5h4.11q7.66,0,7.66-8.44V172a2.06,2.06,0,0,1,2.33-2.33h9.32q2.44,0,2.44,2.33V224q0,2.33-2.44,2.33h-9.32A2.06,2.06,0,0,1,494,224v-3.66h-.44a8.43,8.43,0,0,1-4.33,4.5A14.9,14.9,0,0,1,482.64,226.28Z" transform="translate(-17.9 -8.81)"/><path class="cls-2" d="M523.15,181.88h-4.44a2.81,2.81,0,0,1-1.83-.44,2.36,2.36,0,0,1-.5-1.78V172a2.06,2.06,0,0,1,2.33-2.33h4.44a1.08,1.08,0,0,0,1.22-1.22V157.91q0-2.33,2.44-2.33h9.32a2.06,2.06,0,0,1,2.33,2.33v10.54q0,1.22,1.33,1.22h8.66a2.06,2.06,0,0,1,2.33,2.33v7.66a2.38,2.38,0,0,1-.5,1.72,2.58,2.58,0,0,1-1.83.5H539.8q-1.33,0-1.33,1.22v24.53q0,3.44,1.55,4.94t5.11,1.5h4.44a2.06,2.06,0,0,1,2.33,2.33v7.66a2.39,2.39,0,0,1-.5,1.72,2.58,2.58,0,0,1-1.83.5H542.8q-8.77,0-13.6-4.66t-4.83-13.32V183.1A1.08,1.08,0,0,0,523.15,181.88Z" transform="translate(-17.9 -8.81)"/><path class="cls-2" d="M589.86,226.28H580q-8.77,0-13.54-4.66t-4.77-13.43V187.76q0-8.77,4.77-13.43T580,169.67h9.88q8.66,0,13.49,4.72t4.83,13.38v20.42q0,8.66-4.83,13.38T589.86,226.28Zm-7.77-12.1h5.66q3.55,0,5.05-1.44t1.5-5V188.21q0-3.55-1.5-5t-5.05-1.44h-5.66q-3.55,0-5,1.44t-1.44,5v19.54q0,3.55,1.44,5T582.09,214.18Z" transform="translate(-17.9 -8.81)"/><path class="cls-2" d="M632.71,226.28h-9.44a2.06,2.06,0,0,1-2.33-2.33V172a2.06,2.06,0,0,1,2.33-2.33h9.44A2.06,2.06,0,0,1,635,172v3.77h.44a8.64,8.64,0,0,1,4.33-4.55,14.46,14.46,0,0,1,6.55-1.55h4q2.22,0,2.22,2.33v7.66a2.58,2.58,0,0,1-.5,1.83,2.11,2.11,0,0,1-1.72.39H642.7q-7.66,0-7.66,8.66V224A2.06,2.06,0,0,1,632.71,226.28Z" transform="translate(-17.9 -8.81)"/><path class="cls-2" d="M661.9,160.13v-9.66a2,2,0,0,1,2.22-2.22h9.66q2.22,0,2.22,2.11v9.77a2,2,0,0,1-2.22,2.22h-9.66A2,2,0,0,1,661.9,160.13Zm0,63.82V172q0-2.33,2.22-2.33h9.55A2.06,2.06,0,0,1,676,172V224a2.56,2.56,0,0,1-.5,1.89,2.59,2.59,0,0,1-1.72.44h-9.55A2.06,2.06,0,0,1,661.9,224Z" transform="translate(-17.9 -8.81)"/><path class="cls-2" d="M710.29,226.28h-2.66q-8.77,0-13.54-4.66t-4.77-13.43V187.76q0-8.77,4.77-13.43t13.54-4.66h25.64q2.44,0,2.44,2.33V224q0,2.33-2.44,2.33h-9.32a2.06,2.06,0,0,1-2.33-2.33v-3.66h-.44a8.42,8.42,0,0,1-4.33,4.5A14.9,14.9,0,0,1,710.29,226.28Zm11.32-20.65V183.1q0-1.22-1.33-1.22H709.85q-3.55,0-5,1.5t-1.44,5.05v19.09q0,3.55,1.44,5t5,1.5H714Q721.62,214.07,721.62,205.63Z" transform="translate(-17.9 -8.81)"/><path class="cls-2" d="M761.91,226.28h-9.43a2.06,2.06,0,0,1-2.33-2.33V150.58a2.06,2.06,0,0,1,2.33-2.33h9.43a2.06,2.06,0,0,1,2.33,2.33V224A2.06,2.06,0,0,1,761.91,226.28Z" transform="translate(-17.9 -8.81)"/><path class="cls-2" d="M800.09,226.28H779q-2.22,0-2.22-2.33v-7.1a2.59,2.59,0,0,1,.44-1.72,2.36,2.36,0,0,1,1.78-.5h18.54q5.44,0,5.44-3.33v-.55q0-2.66-4.55-5.11l-11-6.1a25.13,25.13,0,0,1-8.33-6.22,13.26,13.26,0,0,1-2.66-8.55q0-7.77,4.11-11.43t12.88-3.66H812q2.22,0,2.22,2.33v7.21a2.6,2.6,0,0,1-.44,1.72,2.37,2.37,0,0,1-1.78.5H796.54q-5.44,0-5.44,2.78v.55q0,2.44,4.77,5l11.21,6.66q5.77,3.11,8.1,6.38a14.52,14.52,0,0,1,2.33,8.6Q817.52,226.28,800.09,226.28Z" transform="translate(-17.9 -8.81)"/><g id="_Group_" data-name="&lt;Group&gt;"><polygon class="cls-2" points="225.38 39.16 225.38 104.23 169.03 136.76 169.03 71.72 225.38 39.16"/><polygon class="cls-5" points="112.68 39.19 112.67 39.19 112.67 39.16 169.03 6.62 225.38 39.16 169.03 71.72 112.68 39.19"/><polygon class="cls-3" points="169.03 136.79 169.03 201.85 112.67 234.39 112.67 169.32 169.03 136.79"/><polygon class="cls-2" points="169.03 136.76 169.03 136.79 112.7 104.27 112.72 104.25 169.03 136.76"/><polygon class="cls-6" points="169.03 71.72 169.03 136.76 112.72 104.25 169.03 71.72"/><polygon class="cls-6" points="112.68 39.19 169.03 71.72 112.72 104.25 112.67 104.23 112.67 39.19 112.68 39.19"/><polygon class="cls-7" points="169.03 136.79 112.67 169.32 112.67 169.28 112.67 167.38 112.67 104.28 112.7 104.27 169.03 136.79"/><polygon class="cls-8" points="112.67 104.25 112.65 104.27 56.33 71.72 56.35 71.71 112.67 39.19 112.67 104.23 112.72 104.25 112.7 104.27 112.67 104.25"/><polygon class="cls-6" points="112.7 104.27 112.67 104.28 112.67 104.25 112.7 104.27"/><polygon class="cls-9" points="112.67 169.32 112.67 234.39 56.33 201.85 56.33 137.1 56.33 136.79 112.67 169.32"/><polygon class="cls-7" points="112.67 169.28 112.67 169.32 56.33 136.79 112.65 104.27 112.67 104.28 112.67 167.38 112.67 169.28"/><polygon class="cls-7" points="112.67 104.25 112.67 104.28 112.65 104.27 112.67 104.25"/><polygon class="cls-8" points="112.65 104.27 56.33 136.79 56.33 72.05 56.33 71.72 112.65 104.27"/><polygon class="cls-10" points="112.7 169.32 112.7 104.28 169.05 71.72 169.05 136.79 112.7 169.32"/><polygon class="cls-11" points="112.7 39.15 56.35 71.7 0 39.18 0 39.17 0 39.15 56.35 6.61 112.7 39.15"/><polygon class="cls-12" points="112.7 104.25 112.7 169.32 56.35 136.79 56.35 72.03 56.35 71.73 56.35 71.72 112.7 104.25"/></g></svg>