<?xml version="1.0" standalone="no"?>
<!DOCTYPE svg PUBLIC "-//W3C//DTD SVG 20010904//EN"
 "http://www.w3.org/TR/2001/REC-SVG-20010904/DTD/svg10.dtd">
<svg version="1.0" xmlns="http://www.w3.org/2000/svg"
 width="2182.000000pt" height="2182.000000pt" viewBox="0 0 2182.000000 2182.000000"
 preserveAspectRatio="xMidYMid meet">
<metadata>
Created by potrace 1.11, written by Peter Selinger 2001-2013
</metadata>
<g transform="translate(0.000000,2182.000000) scale(0.100000,-0.100000)"
fill="#000000" stroke="none">
<path d="M2825 20263 c-1479 -854 -2691 -1557 -2692 -1561 -3 -10 5366 -3106
5394 -3110 12 -2 23 1 23 5 0 5 26 22 57 38 32 17 63 36 71 42 7 7 24 16 38
19 13 3 24 9 24 13 0 9 51 35 63 33 4 -1 7 2 7 6 0 4 26 21 57 37 32 17 63 35
70 42 7 6 23 15 36 19 12 4 24 10 27 14 8 12 174 105 183 102 4 -1 7 2 7 6 0
9 37 29 54 30 5 0 12 4 15 10 8 12 165 102 179 102 6 0 12 4 14 8 4 12 171
108 181 104 4 -1 7 2 7 6 0 8 51 36 59 32 2 -1 7 2 10 8 8 11 168 104 177 102
4 -1 10 2 13 7 9 14 251 153 251 145 0 -4 4 -2 8 4 8 13 168 106 178 104 4 -1
10 2 13 7 9 14 251 153 251 145 0 -4 4 -2 8 4 6 9 569 337 1612 939 69 40 170
98 225 130 109 64 265 154 600 347 72 41 191 110 265 153 74 43 187 108 250
145 302 174 351 202 348 205 -4 3 -5295 3058 -5353 3090 l-40 22 -2690 -1554z"/>
<path d="M13616 20261 l-2696 -1556 -2 -3117 -3 -3116 -1350 780 c-742 429
-1375 794 -1407 811 -31 18 -145 84 -254 147 -109 63 -210 122 -225 130 -16 8
-74 42 -131 75 -56 33 -115 67 -130 75 -14 8 -57 33 -95 55 -37 22 -80 47 -95
55 -15 8 -73 42 -130 75 -56 33 -115 67 -129 75 -15 8 -63 35 -106 60 -43 25
-85 49 -93 53 -8 4 -31 18 -52 30 -105 64 -218 129 -258 148 -14 7 -32 18 -40
25 -8 6 -39 25 -68 40 -29 16 -68 38 -86 49 -19 11 -69 40 -112 65 -44 25 -88
50 -99 57 -11 7 -31 18 -45 25 -14 6 -32 17 -40 24 -8 6 -40 25 -70 41 -80 43
-103 57 -120 70 -8 6 -44 26 -78 45 -81 42 -97 51 -114 65 -7 7 -26 16 -41 22
l-27 11 0 -6233 0 -6233 2692 -1555 c1481 -855 2698 -1553 2704 -1553 6 1
1222 701 2703 1555 l2691 1554 0 3117 0 3118 24 15 c14 9 1228 711 2698 1560
l2673 1543 0 3118 0 3118 -2525 1458 c-1389 802 -2602 1502 -2696 1556 l-172
99 -2696 -1556z"/>
</g>
</svg>
