<svg id="Layer_1" data-name="Layer 1" xmlns="http://www.w3.org/2000/svg" viewBox="0 0 1008 252"><defs><style>.cls-1{fill:#fdba54;}.cls-2{fill:#fff;}.cls-3{fill:#3b3b3c;}.cls-11,.cls-4{fill:#93c4ca;}.cls-5{fill:#5bb6c8;}.cls-13,.cls-6{fill:#50a6b7;}.cls-7{fill:#8cbac0;}.cls-8{fill:#87b3b9;}.cls-9{fill:#54a7b7;}.cls-10{fill:#57aebe;}.cls-11,.cls-13{opacity:0.25;}.cls-12{fill:#efb050;}</style></defs><title>djDocsBETAtop</title><path class="cls-1" d="M754.09,0H692.93L868,175.07V113.91Z"/><path class="cls-1" d="M945.42,251.11l61.16-.2L830.93,76.42v1.07l.18,53,0,7v.09Z"/><path class="cls-2" d="M812.69,104.08l15.72-15.72a.69.69,0,0,1,1.1,0l6.28,6.28a6.19,6.19,0,0,1,2.09,4.29,5.93,5.93,0,0,1-2,4.26l-1.07,1.07a3.88,3.88,0,0,1-4.94.81,3.86,3.86,0,0,1,.82,2.53,4,4,0,0,1-1.35,2.6l-1.57,1.57a5.93,5.93,0,0,1-4.26,2,6.15,6.15,0,0,1-4.27-2.07l-6.54-6.54A.69.69,0,0,1,812.69,104.08Zm5.83,1.39,2.93,2.93a2.53,2.53,0,0,0,1.59.89,2.17,2.17,0,0,0,1.54-.78l1.52-1.52a2.06,2.06,0,0,0,.76-1.54,2.74,2.74,0,0,0-.94-1.62L823,100.94a.36.36,0,0,0-.58,0l-4,4A.36.36,0,0,0,818.52,105.47Zm7.22-7.22,2.67,2.67a2.55,2.55,0,0,0,1.58.88,2.13,2.13,0,0,0,1.56-.77l1-1a2.17,2.17,0,0,0,.79-1.54,2.48,2.48,0,0,0-.86-1.57l-2.7-2.7a.36.36,0,0,0-.58,0l-3.48,3.48A.36.36,0,0,0,825.74,98.25Z"/><path class="cls-2" d="M835.76,128.26l-8.55-8.56a.69.69,0,0,1,0-1.1l15.72-15.72a.69.69,0,0,1,1.1,0l8.56,8.56a.67.67,0,0,1,0,1.07l-1.78,1.78a.67.67,0,0,1-1.07,0l-5.47-5.47a.38.38,0,0,0-.6,0l-3.4,3.4a.38.38,0,0,0,0,.6l4.47,4.47a.69.69,0,0,1,0,1.1L843,120.17a.69.69,0,0,1-1.1,0l-4.47-4.47a.38.38,0,0,0-.6,0l-3.64,3.64a.38.38,0,0,0,0,.6l5.47,5.47a.67.67,0,0,1,0,1.07l-1.78,1.78A.67.67,0,0,1,835.76,128.26Z"/><path class="cls-2" d="M844.4,136.89l-2.2-2.2a.7.7,0,0,1,0-1.12l13.11-13.11a.36.36,0,0,0,0-.57l-3-3a.69.69,0,0,1,0-1.1l1.78-1.78a.69.69,0,0,1,1.1,0l9.89,9.89a.69.69,0,0,1,0,1.1l-1.78,1.78a.69.69,0,0,1-1.1,0l-3-3a.38.38,0,0,0-.6,0L845.5,136.89A.69.69,0,0,1,844.4,136.89Z"/><path class="cls-2" d="M852.53,145,850,142.52q-.47-.47.24-.86l19.86-11.59a1.06,1.06,0,0,1,1.33.24l3.48,3.48a1,1,0,0,1,.24,1.33L863.57,155q-.39.71-.86.23l-2.51-2.51a.72.72,0,0,1-.27-.51,1.25,1.25,0,0,1,.27-.59l2.15-3.61-5.1-5.1L853.63,145a1.13,1.13,0,0,1-.6.26A.74.74,0,0,1,852.53,145ZM870,135.16l-9.45,5.68,3.87,3.87,5.68-9.45Z"/><path class="cls-3" d="M357.76,76.16V25.69a1.24,1.24,0,0,1,1.41-1.41h20.38q6,0,9.49,3.36t3.44,9.49V64.72q0,6-3.44,9.45t-9.49,3.4H359.17A1.24,1.24,0,0,1,357.76,76.16Zm8.95-5.63h11.68q6,0,6-6.13V37.46q0-6.13-6-6.13H366.71c-.61,0-.91.28-.91.83V69.61A.8.8,0,0,0,366.71,70.52Z"/><path class="cls-3" d="M419.41,77.56h-3.23q-6.13,0-9.49-3.4t-3.36-9.45V48.15q0-6.13,3.36-9.49t9.49-3.36h18.56q1.49,0,1.49,1.41V76.16q0,1.41-1.49,1.41h-5.22a1.24,1.24,0,0,1-1.41-1.41v-3h-.33Q425.79,77.57,419.41,77.56Zm8.7-14.09V43.18q0-.83-.91-.83h-9.86q-6,0-6,6.13V64.39q0,6.13,6,6.13h4Q428.11,70.52,428.11,63.48Z"/><path class="cls-3" d="M449.07,42.35h-4a1.59,1.59,0,0,1-1.12-.29,1.45,1.45,0,0,1-.29-1V36.71a1.25,1.25,0,0,1,1.41-1.41h4a.73.73,0,0,0,.83-.83V27q0-1.41,1.49-1.41h5.22A1.25,1.25,0,0,1,458,27v7.46c0,.55.3.83.91.83h7.71q1.49,0,1.49,1.41V41q0,1.33-1.49,1.33h-7.71c-.61,0-.91.28-.91.83v21.3q0,6,6.21,6h3.23q1.49,0,1.49,1.41v4.31q0,1.33-1.49,1.33H463q-6.13,0-9.61-3.31t-3.48-9.36V43.18A.73.73,0,0,0,449.07,42.35Z"/><path class="cls-3" d="M493.41,77.56h-3.23q-6.13,0-9.49-3.4t-3.36-9.45V48.15q0-6.13,3.36-9.49t9.49-3.36h18.56q1.49,0,1.49,1.41V76.16q0,1.41-1.49,1.41h-5.22a1.24,1.24,0,0,1-1.41-1.41v-3h-.33Q499.79,77.57,493.41,77.56Zm8.7-14.09V43.18q0-.83-.91-.83h-9.86q-6,0-6,6.13V64.39q0,6.13,6,6.13h4Q502.11,70.52,502.11,63.48Z"/><path class="cls-3" d="M513.06,77.36h5.22q1.41,0,1.41,1.33V117.8q0,6-3.4,9.45t-9.45,3.4h-8.29q-6.13,0-9.53-3.4t-3.4-9.45v-7.46q0-1.41,1.49-1.41h5.22a1.25,1.25,0,0,1,1.41,1.41v7.13q0,6.13,6,6.13h5.88q6,0,6-6.13V78.77Q511.57,77.36,513.06,77.36Z"/><path class="cls-3" d="M551.1,130.64H543.8q-6.13,0-9.49-3.4T531,117.8V101.23q0-6.13,3.36-9.49t9.49-3.36h7.29q6,0,9.49,3.36t3.44,9.49V117.8q0,6-3.44,9.45T551.1,130.64Zm-6.13-7H550q6,0,6-6V101.48q0-6-6-6H545q-3.15,0-4.56,1.45a6.41,6.41,0,0,0-1.41,4.6v16.08a6.4,6.4,0,0,0,1.41,4.6Q541.81,123.6,545,123.6Z"/><path class="cls-3" d="M575.21,81.34V73.8a1.17,1.17,0,0,1,1.33-1.33h5.39a1.17,1.17,0,0,1,1.33,1.33v7.54q0,1.41-1.33,1.41h-5.39Q575.21,82.75,575.21,81.34Zm0,47.9V89.79q0-1.41,1.33-1.41h5.3a1.25,1.25,0,0,1,1.41,1.41v39.44a1.6,1.6,0,0,1-.29,1.12,1.45,1.45,0,0,1-1,.29h-5.3A1.24,1.24,0,0,1,575.21,129.24Z"/><path class="cls-3" d="M602,130.64h-5.22a1.24,1.24,0,0,1-1.41-1.41V89.79a1.24,1.24,0,0,1,1.41-1.41H602a1.25,1.25,0,0,1,1.41,1.41v3h.33q2-4.39,8.37-4.39h3.65q6,0,9.28,3.31t3.23,9.53v28q0,1.41-1.49,1.41h-5.22a1.24,1.24,0,0,1-1.41-1.41V101.56q0-6.13-6-6.13h-3.89q-6.8,0-6.79,7v26.77A1.24,1.24,0,0,1,602,130.64Z"/><path class="cls-3" d="M640.67,95.43h-4a1.6,1.6,0,0,1-1.12-.29,1.45,1.45,0,0,1-.29-1V89.79a1.25,1.25,0,0,1,1.41-1.41h4a.73.73,0,0,0,.83-.83V80.1q0-1.41,1.49-1.41h5.22a1.25,1.25,0,0,1,1.41,1.41v7.46q0,.83.91.83h7.71q1.49,0,1.49,1.41V94.1q0,1.33-1.49,1.33h-7.71q-.91,0-.91.83v21.3q0,6,6.21,6h3.23q1.49,0,1.49,1.41v4.31q0,1.33-1.49,1.33h-4.47q-6.13,0-9.61-3.31T641.5,118V96.26A.73.73,0,0,0,640.67,95.43Z"/><rect class="cls-4" x="511.68" y="50.94" width="25.14" height="25.14"/><rect class="cls-5" x="485.07" y="78.7" width="25.14" height="25.14"/><path class="cls-5" d="M544.91,68.84h-2.37a3.76,3.76,0,0,1-4.09-4.09V58.84a4,4,0,0,1,1.09-3,4.08,4.08,0,0,1,3-1.08h2.38a4.08,4.08,0,0,1,3,1.08,4,4,0,0,1,1.09,3v5.91a3.76,3.76,0,0,1-4.09,4.09Zm-2.15-1.77h1.93A2.08,2.08,0,0,0,547,64.69v-5.8a2.08,2.08,0,0,0-2.32-2.38h-1.93a2.08,2.08,0,0,0-2.32,2.38v5.8A2.08,2.08,0,0,0,542.76,67.07Z"/><path class="cls-5" d="M553.33,72.87h-1.24a.34.34,0,0,1-.39-.39V55.14a.34.34,0,0,1,.39-.39h1.24a.34.34,0,0,1,.39.39v1.08h.11a2.8,2.8,0,0,1,2.82-1.46h1.66a3.85,3.85,0,0,1,2.91,1.08,4.16,4.16,0,0,1,1,3v5.91a4.16,4.16,0,0,1-1,3,3.85,3.85,0,0,1-2.91,1.08h-1.66a2.8,2.8,0,0,1-2.82-1.46h-.11v5.11A.34.34,0,0,1,553.33,72.87Zm3-5.8h1.63a2.1,2.1,0,0,0,2.35-2.4V58.92a2.1,2.1,0,0,0-2.35-2.4h-1.63a2.58,2.58,0,0,0-1.91.66,2.54,2.54,0,0,0-.66,1.88v5.47a2.54,2.54,0,0,0,.66,1.88A2.58,2.58,0,0,0,556.29,67.07Z"/><path class="cls-5" d="M574.63,68.84h-5.86a3.76,3.76,0,0,1-4.09-4.09V58.84a4,4,0,0,1,1.09-3,4.08,4.08,0,0,1,3-1.08h2.32a3.74,3.74,0,0,1,4.06,4.09v3.51q0,.41-.39.41H567c-.18,0-.28.08-.28.25v1.69A2.09,2.09,0,0,0,569,67.1h5.63a.34.34,0,0,1,.39.39v1Q575,68.84,574.63,68.84ZM567,61.3h6a.24.24,0,0,0,.28-.28V58.89a2.08,2.08,0,0,0-2.32-2.38H569a2.08,2.08,0,0,0-2.32,2.38V61A.24.24,0,0,0,567,61.3Z"/><path class="cls-5" d="M579.35,68.84h-1.24a.34.34,0,0,1-.39-.39V55.14a.34.34,0,0,1,.39-.39h1.24a.34.34,0,0,1,.39.39v1.08h.11a2.8,2.8,0,0,1,2.82-1.46h1.55a3.9,3.9,0,0,1,2.93,1.08,4.13,4.13,0,0,1,1,3v9.61a.34.34,0,0,1-.39.39h-1.24a.34.34,0,0,1-.39-.39V58.92q0-2.4-2.32-2.4h-1.55a2.58,2.58,0,0,0-1.91.66,2.54,2.54,0,0,0-.66,1.88v9.39A.34.34,0,0,1,579.35,68.84Z"/><path class="cls-5" d="M602,68.84h-4.92a.34.34,0,0,1-.39-.39v-1c0-.24.13-.36.39-.36h4.64q2.15,0,2.15-1.6V65a2,2,0,0,0-1.41-2l-3.26-1.38a4.8,4.8,0,0,1-2-1.37,3.32,3.32,0,0,1-.61-2.09q0-3.4,3.73-3.4h4.53a.34.34,0,0,1,.39.39v1q0,.36-.39.36h-4.17a2.34,2.34,0,0,0-1.5.41,1.22,1.22,0,0,0-.51,1v.47q0,1.16,1.58,1.77l3.26,1.46A3.59,3.59,0,0,1,605.44,63a5.17,5.17,0,0,1,.51,2.51Q606,68.84,602,68.84Z"/><path class="cls-5" d="M614.54,68.84h-2.37a3.76,3.76,0,0,1-4.09-4.09V58.84a4,4,0,0,1,1.09-3,4.08,4.08,0,0,1,3-1.08h2.38a4.08,4.08,0,0,1,3,1.08,4,4,0,0,1,1.09,3v5.91a3.76,3.76,0,0,1-4.09,4.09Zm-2.15-1.77h1.93a2.08,2.08,0,0,0,2.32-2.38v-5.8a2.08,2.08,0,0,0-2.32-2.38h-1.93a2.08,2.08,0,0,0-2.32,2.38v5.8A2.08,2.08,0,0,0,612.39,67.07Z"/><path class="cls-5" d="M626.72,68.84h-1.55a3.9,3.9,0,0,1-2.93-1.08,4.13,4.13,0,0,1-1-3V55.14a.34.34,0,0,1,.39-.39h1.24a.34.34,0,0,1,.39.39v9.53q0,2.4,2.29,2.4h1.58a2.58,2.58,0,0,0,1.91-.66,2.54,2.54,0,0,0,.66-1.88V55.14a.34.34,0,0,1,.39-.39h1.24a.34.34,0,0,1,.39.39V68.45a.34.34,0,0,1-.39.39H630a.34.34,0,0,1-.39-.39V67.37h-.11A2.8,2.8,0,0,1,626.72,68.84Z"/><path class="cls-5" d="M636.28,68.84H635a.34.34,0,0,1-.39-.39V55.14a.34.34,0,0,1,.39-.39h1.24a.34.34,0,0,1,.39.39v1.1h.11a2.4,2.4,0,0,1,1-1,3.62,3.62,0,0,1,1.82-.44h1.08c.24,0,.36.13.36.39v1a.44.44,0,0,1-.08.29.29.29,0,0,1-.28.07h-1.49a2.42,2.42,0,0,0-1.91.75,3,3,0,0,0-.66,2v9.14A.34.34,0,0,1,636.28,68.84Z"/><path class="cls-5" d="M650.95,67.46v1q0,.36-.39.36h-4a3.76,3.76,0,0,1-4.09-4.09V58.84a4,4,0,0,1,1.09-3,4.08,4.08,0,0,1,3-1.08h4a.34.34,0,0,1,.39.39v1q0,.36-.39.36h-3.78q-2.29,0-2.29,2.4v5.75q0,2.4,2.29,2.4h3.78A.34.34,0,0,1,650.95,67.46Z"/><path class="cls-5" d="M662.6,68.84h-5.86a3.76,3.76,0,0,1-4.09-4.09V58.84a4,4,0,0,1,1.09-3,4.08,4.08,0,0,1,3-1.08h2.32a3.74,3.74,0,0,1,4.06,4.09v3.51q0,.41-.39.41h-7.82c-.18,0-.28.08-.28.25v1.69A2.09,2.09,0,0,0,657,67.1h5.63a.34.34,0,0,1,.39.39v1Q663,68.84,662.6,68.84Zm-7.68-7.54h6a.24.24,0,0,0,.28-.28V58.89a2.08,2.08,0,0,0-2.32-2.38H657a2.08,2.08,0,0,0-2.32,2.38V61A.24.24,0,0,0,654.92,61.3Z"/><path class="cls-6" d="M254.26,219.74V162.49a1.41,1.41,0,0,1,1.6-1.6H279q6.86,0,10.76,3.81t3.9,10.76v31.3q0,6.86-3.9,10.72T279,221.34H255.86A1.41,1.41,0,0,1,254.26,219.74Zm10.15-6.39h13.25q6.77,0,6.77-7V175.84q0-7-6.77-7H264.42c-.69,0-1,.31-1,.94v42.49A.91.91,0,0,0,264.42,213.35Z"/><path class="cls-6" d="M328.81,221.34h-8.27q-7,0-10.76-3.85T306,206.77V188q0-7,3.81-10.76t10.76-3.81h8.27q6.86,0,10.76,3.81t3.9,10.76v18.8q0,6.86-3.9,10.72T328.81,221.34Zm-7-8h5.73q6.77,0,6.77-6.86V188.25q0-6.86-6.77-6.86h-5.73q-3.57,0-5.17,1.64t-1.6,5.22v18.24q0,3.57,1.6,5.22T321.85,213.35Z"/><path class="cls-6" d="M384.83,214.94v4.89q0,1.5-1.69,1.5H369.32q-7,0-10.76-3.85t-3.81-10.72V188q0-7,3.81-10.76t10.76-3.81h13.82q1.69,0,1.69,1.6v4.89q0,1.5-1.69,1.5h-12.5q-6.77,0-6.77,7v18q0,7,6.77,7h12.5Q384.83,213.35,384.83,214.94Z"/><path class="cls-6" d="M412.94,221.34h-4.23q-6.77,0-10.39-3.81t-3.62-10.76V175a1.41,1.41,0,0,1,1.6-1.6h5.92a1.41,1.41,0,0,1,1.6,1.6v31.4q0,7,6.77,7h4.51q7.71,0,7.71-8V175a1.41,1.41,0,0,1,1.6-1.6h5.92q1.69,0,1.69,1.6v44.74q0,1.6-1.69,1.6H424.4a1.41,1.41,0,0,1-1.6-1.6v-3.38h-.38Q420.17,221.34,412.94,221.34Z"/><path class="cls-6" d="M452.7,221.34h-5.92a1.41,1.41,0,0,1-1.6-1.6V175a1.41,1.41,0,0,1,1.6-1.6h5.92a1.41,1.41,0,0,1,1.6,1.6v3.38h.38q2.73-5,10-5h3.1q8.18,0,11.66,6.2A10.24,10.24,0,0,1,484,175a14.36,14.36,0,0,1,6.67-1.6h3q6.86,0,10.48,3.81T507.78,188v31.77a1.41,1.41,0,0,1-1.6,1.6h-6a1.41,1.41,0,0,1-1.6-1.6v-31.4q0-7-6.77-7h-2.73q-7.8,0-7.8,8.18v30.17q0,1.6-1.69,1.6h-5.92a1.41,1.41,0,0,1-1.6-1.6v-31.4q0-7-6.77-7H462q-7.71,0-7.71,8v30.36A1.41,1.41,0,0,1,452.7,221.34Z"/><path class="cls-6" d="M554.5,221.34h-20.3q-7,0-10.76-3.85t-3.81-10.72V188q0-7,3.81-10.76t10.76-3.81h7.71q7,0,10.81,3.81T556.57,188V199.9a1.5,1.5,0,0,1-1.69,1.69H529.68q-1,0-1,.94v4q0,6.86,6.86,6.86h19a1.5,1.5,0,0,1,1.69,1.69v4.7Q556.19,221.34,554.5,221.34Zm-24.82-26.13h16.83a.83.83,0,0,0,.94-.94v-6q0-3.57-1.6-5.22t-5.17-1.64h-5.17q-3.57,0-5.17,1.64t-1.6,5.22v6A.83.83,0,0,0,529.68,195.21Z"/><path class="cls-6" d="M575.84,221.34h-5.92a1.41,1.41,0,0,1-1.6-1.6V175a1.41,1.41,0,0,1,1.6-1.6h5.92a1.41,1.41,0,0,1,1.6,1.6v3.38h.38q2.26-5,9.49-5h4.14q6.86,0,10.53,3.76T605.63,188v31.77q0,1.6-1.69,1.6H598a1.41,1.41,0,0,1-1.6-1.6v-31.4q0-7-6.86-7h-4.42q-7.71,0-7.71,8v30.36A1.41,1.41,0,0,1,575.84,221.34Z"/><path class="cls-6" d="M619.73,181.39h-4.51a1.81,1.81,0,0,1-1.27-.33,1.64,1.64,0,0,1-.33-1.17V175a1.41,1.41,0,0,1,1.6-1.6h4.51a.83.83,0,0,0,.94-.94V164q0-1.6,1.69-1.6h5.92a1.41,1.41,0,0,1,1.6,1.6v8.46q0,.94,1,.94h8.74q1.69,0,1.69,1.6v4.89q0,1.5-1.69,1.5h-8.74q-1,0-1,.94v24.16q0,6.86,7,6.86h3.67q1.69,0,1.69,1.6v4.89q0,1.5-1.69,1.5h-5.08q-7,0-10.9-3.76T620.67,207V182.33A.83.83,0,0,0,619.73,181.39Z"/><path class="cls-6" d="M670,221.34h-3.67q-7,0-10.76-3.85t-3.81-10.72V188q0-7,3.81-10.76t10.76-3.81h21.06q1.69,0,1.69,1.6v44.74q0,1.6-1.69,1.6h-5.92a1.41,1.41,0,0,1-1.6-1.6v-3.38h-.38Q677.26,221.34,670,221.34Zm9.87-16v-23q0-.94-1-.94H667.67q-6.77,0-6.77,7v18q0,7,6.77,7h4.51Q679.89,213.35,679.89,205.36Z"/><path class="cls-6" d="M703.68,181.39h-4.51a1.81,1.81,0,0,1-1.27-.33,1.64,1.64,0,0,1-.33-1.17V175a1.41,1.41,0,0,1,1.6-1.6h4.51a.83.83,0,0,0,.94-.94V164q0-1.6,1.69-1.6h5.92a1.41,1.41,0,0,1,1.6,1.6v8.46q0,.94,1,.94h8.74q1.69,0,1.69,1.6v4.89q0,1.5-1.69,1.5h-8.74q-1,0-1,.94v24.16q0,6.86,7,6.86h3.67q1.69,0,1.69,1.6v4.89q0,1.5-1.69,1.5h-5.08q-7,0-10.9-3.76T704.62,207V182.33A.83.83,0,0,0,703.68,181.39Z"/><path class="cls-6" d="M737.14,165.41v-8.55a1.33,1.33,0,0,1,1.5-1.5h6.11a1.33,1.33,0,0,1,1.5,1.5v8.55q0,1.6-1.5,1.6h-6.11Q737.14,167,737.14,165.41Zm0,54.33V175q0-1.6,1.5-1.6h6a1.41,1.41,0,0,1,1.6,1.6v44.74a1.82,1.82,0,0,1-.33,1.27,1.64,1.64,0,0,1-1.17.33h-6A1.41,1.41,0,0,1,737.14,219.74Z"/><path class="cls-6" d="M781.88,221.34h-8.27q-7,0-10.76-3.85T759,206.77V188q0-7,3.81-10.76t10.76-3.81h8.27q6.86,0,10.76,3.81t3.9,10.76v18.8q0,6.86-3.9,10.72T781.88,221.34Zm-7-8h5.73q6.77,0,6.77-6.86V188.25q0-6.86-6.77-6.86h-5.73q-3.57,0-5.17,1.64t-1.6,5.22v18.24q0,3.57,1.6,5.22T774.93,213.35Z"/><path class="cls-6" d="M816.29,221.34h-5.92a1.41,1.41,0,0,1-1.6-1.6V175a1.41,1.41,0,0,1,1.6-1.6h5.92a1.41,1.41,0,0,1,1.6,1.6v3.38h.38q2.26-5,9.49-5h4.14q6.86,0,10.53,3.76T846.08,188v31.77q0,1.6-1.69,1.6h-5.92a1.41,1.41,0,0,1-1.6-1.6v-31.4q0-7-6.86-7h-4.42q-7.71,0-7.71,8v30.36A1.41,1.41,0,0,1,816.29,221.34Z"/><g id="_Group_" data-name="&lt;Group&gt;"><polygon class="cls-4" points="247.4 47.62 247.4 112.69 191.05 145.22 191.05 80.18 247.4 47.62"/><polygon class="cls-7" points="134.7 47.65 134.7 47.64 134.7 47.62 191.05 15.08 247.4 47.62 191.05 80.18 134.7 47.65"/><polygon class="cls-5" points="191.05 145.25 191.05 210.31 134.7 242.85 134.7 177.78 191.05 145.25"/><polygon class="cls-4" points="191.05 145.22 191.05 145.25 134.72 112.72 134.74 112.71 191.05 145.22"/><polygon class="cls-8" points="191.05 80.18 191.05 145.22 134.74 112.71 191.05 80.18"/><polygon class="cls-8" points="134.7 47.65 191.05 80.18 134.74 112.71 134.7 112.69 134.7 47.64 134.7 47.65"/><polygon class="cls-9" points="191.05 145.25 134.7 177.78 134.7 177.74 134.7 175.84 134.7 112.74 134.72 112.72 191.05 145.25"/><polygon class="cls-1" points="134.7 112.71 134.68 112.72 78.35 80.18 78.38 80.17 134.7 47.64 134.7 112.69 134.74 112.71 134.72 112.72 134.7 112.71"/><polygon class="cls-8" points="134.72 112.72 134.7 112.74 134.7 112.71 134.72 112.72"/><polygon class="cls-10" points="134.7 177.78 134.7 242.85 78.35 210.31 78.35 145.56 78.35 145.25 134.7 177.78"/><polygon class="cls-9" points="134.7 177.74 134.7 177.78 78.35 145.25 134.68 112.72 134.7 112.74 134.7 175.84 134.7 177.74"/><polygon class="cls-9" points="134.7 112.71 134.7 112.74 134.68 112.72 134.7 112.71"/><polygon class="cls-1" points="134.68 112.72 78.35 145.25 78.35 80.51 78.35 80.18 134.68 112.72"/><polygon class="cls-11" points="134.72 177.78 134.72 112.74 191.07 80.18 191.07 145.25 134.72 177.78"/><polygon class="cls-12" points="134.72 47.6 78.38 80.16 22.03 47.64 22.02 47.63 22.02 47.6 78.38 15.07 134.72 47.6"/><polygon class="cls-13" points="134.72 112.71 134.72 177.78 78.38 145.25 78.38 80.49 78.38 80.19 78.38 80.18 134.72 112.71"/></g></svg>