<svg id="Layer_1" data-name="Layer 1" xmlns="http://www.w3.org/2000/svg" viewBox="0 0 846.1 243.19"><defs><style>.cls-1{fill:#3b3b3c;}.cls-10,.cls-2{fill:#93c4ca;}.cls-3{fill:#5bb6c8;}.cls-12,.cls-4{fill:#50a6b7;}.cls-5{fill:#8cbac0;}.cls-6{fill:#87b3b9;}.cls-7{fill:#54a7b7;}.cls-8{fill:#fdba54;}.cls-9{fill:#57aebe;}.cls-10,.cls-12{opacity:0.25;}.cls-11{fill:#efb050;}.cls-13{fill:#f7941d;}.cls-14{fill:#fff;}</style></defs><title>djDocsBETA</title><path class="cls-1" d="M353.64,76.5V26A1.24,1.24,0,0,1,355,24.63h20.38q6,0,9.49,3.36t3.44,9.49V65.07q0,6-3.44,9.45t-9.49,3.4H355A1.24,1.24,0,0,1,353.64,76.5Zm8.95-5.63h11.68q6,0,6-6.13V37.81q0-6.13-6-6.13H362.59c-.61,0-.91.28-.91.83V70A.8.8,0,0,0,362.59,70.87Z" transform="translate(-17.9)"/><path class="cls-1" d="M415.29,77.91h-3.23q-6.13,0-9.49-3.4t-3.36-9.45V48.5q0-6.13,3.36-9.49t9.49-3.36h18.56q1.49,0,1.49,1.41V76.5q0,1.41-1.49,1.41H425.4A1.24,1.24,0,0,1,424,76.5v-3h-.33Q421.67,77.91,415.29,77.91ZM424,63.82V43.52q0-.83-.91-.83h-9.86q-6,0-6,6.13V64.74q0,6.13,6,6.13h4Q424,70.87,424,63.82Z" transform="translate(-17.9)"/><path class="cls-1" d="M445,42.69h-4a1.59,1.59,0,0,1-1.12-.29,1.44,1.44,0,0,1-.29-1V37.06A1.25,1.25,0,0,1,441,35.65h4a.73.73,0,0,0,.83-.83V27.37q0-1.41,1.49-1.41h5.22a1.25,1.25,0,0,1,1.41,1.41v7.46c0,.55.3.83.91.83h7.71q1.49,0,1.49,1.41v4.31q0,1.33-1.49,1.33h-7.71c-.61,0-.91.28-.91.83v21.3q0,6,6.21,6h3.23q1.49,0,1.49,1.41v4.31q0,1.33-1.49,1.33h-4.47q-6.13,0-9.61-3.31t-3.48-9.36V43.52A.73.73,0,0,0,445,42.69Z" transform="translate(-17.9)"/><path class="cls-1" d="M489.28,77.91h-3.23q-6.13,0-9.49-3.4t-3.36-9.45V48.5q0-6.13,3.36-9.49t9.49-3.36h18.56q1.49,0,1.49,1.41V76.5q0,1.41-1.49,1.41h-5.22A1.24,1.24,0,0,1,498,76.5v-3h-.33Q495.66,77.91,489.28,77.91ZM498,63.82V43.52q0-.83-.91-.83h-9.86q-6,0-6,6.13V64.74q0,6.13,6,6.13h4Q498,70.87,498,63.82Z" transform="translate(-17.9)"/><path class="cls-1" d="M508.94,77.71h5.22q1.41,0,1.41,1.33v39.11q0,6-3.4,9.45t-9.45,3.4h-8.29q-6.13,0-9.53-3.4t-3.4-9.45v-7.46q0-1.41,1.49-1.41h5.22a1.25,1.25,0,0,1,1.41,1.41v7.13q0,6.13,6,6.13h5.88q6,0,6-6.13V79.12Q507.45,77.71,508.94,77.71Z" transform="translate(-17.9)"/><path class="cls-1" d="M547,131h-7.29q-6.13,0-9.49-3.4t-3.36-9.45V101.57q0-6.13,3.36-9.49t9.49-3.36H547q6,0,9.49,3.36t3.44,9.49v16.57q0,6-3.44,9.45T547,131Zm-6.13-7h5.05q6,0,6-6V101.82q0-6-6-6h-5.05q-3.15,0-4.56,1.45a6.41,6.41,0,0,0-1.41,4.6V117.9a6.4,6.4,0,0,0,1.41,4.6Q537.69,123.95,540.84,123.95Z" transform="translate(-17.9)"/><path class="cls-1" d="M571.09,81.69V74.15a1.17,1.17,0,0,1,1.33-1.33h5.39a1.17,1.17,0,0,1,1.33,1.33v7.54q0,1.41-1.33,1.41h-5.39Q571.09,83.1,571.09,81.69Zm0,47.9V90.14q0-1.41,1.33-1.41h5.3a1.25,1.25,0,0,1,1.41,1.41v39.44a1.6,1.6,0,0,1-.29,1.12,1.45,1.45,0,0,1-1,.29h-5.3A1.24,1.24,0,0,1,571.09,129.58Z" transform="translate(-17.9)"/><path class="cls-1" d="M597.85,131h-5.22a1.24,1.24,0,0,1-1.41-1.41V90.14a1.24,1.24,0,0,1,1.41-1.41h5.22a1.25,1.25,0,0,1,1.41,1.41v3h.33q2-4.39,8.37-4.39h3.65q6,0,9.28,3.31t3.23,9.53v28q0,1.41-1.49,1.41h-5.22a1.24,1.24,0,0,1-1.41-1.41V101.91q0-6.13-6-6.13h-3.89q-6.8,0-6.79,7v26.77A1.24,1.24,0,0,1,597.85,131Z" transform="translate(-17.9)"/><path class="cls-1" d="M636.55,95.77h-4a1.6,1.6,0,0,1-1.12-.29,1.45,1.45,0,0,1-.29-1V90.14a1.25,1.25,0,0,1,1.41-1.41h4a.73.73,0,0,0,.83-.83V80.44q0-1.41,1.49-1.41h5.22a1.25,1.25,0,0,1,1.41,1.41V87.9q0,.83.91.83h7.71q1.49,0,1.49,1.41v4.31q0,1.33-1.49,1.33h-7.71q-.91,0-.91.83v21.3q0,6,6.21,6h3.23q1.49,0,1.49,1.41v4.31q0,1.33-1.49,1.33h-4.47q-6.13,0-9.61-3.31t-3.48-9.36V96.6A.73.73,0,0,0,636.55,95.77Z" transform="translate(-17.9)"/><rect class="cls-2" x="489.66" y="51.29" width="25.14" height="25.14"/><rect class="cls-3" x="463.05" y="79.05" width="25.14" height="25.14"/><path class="cls-3" d="M540.79,69.18h-2.37a3.76,3.76,0,0,1-4.09-4.09V59.19a4,4,0,0,1,1.09-3,4.08,4.08,0,0,1,3-1.08h2.38a4.08,4.08,0,0,1,3,1.08,4,4,0,0,1,1.09,3V65.1a3.76,3.76,0,0,1-4.09,4.09Zm-2.15-1.77h1.93A2.08,2.08,0,0,0,542.89,65v-5.8a2.08,2.08,0,0,0-2.32-2.38h-1.93a2.08,2.08,0,0,0-2.32,2.38V65A2.08,2.08,0,0,0,538.63,67.42Z" transform="translate(-17.9)"/><path class="cls-3" d="M549.21,73.22H548a.34.34,0,0,1-.39-.39V55.48a.34.34,0,0,1,.39-.39h1.24a.34.34,0,0,1,.39.39v1.08h.11a2.8,2.8,0,0,1,2.82-1.46h1.66a3.85,3.85,0,0,1,2.91,1.08,4.16,4.16,0,0,1,1,3V65.1a4.16,4.16,0,0,1-1,3,3.85,3.85,0,0,1-2.91,1.08h-1.66a2.8,2.8,0,0,1-2.82-1.46h-.11v5.11A.34.34,0,0,1,549.21,73.22Zm3-5.8h1.63a2.1,2.1,0,0,0,2.35-2.4V59.27a2.1,2.1,0,0,0-2.35-2.4h-1.63a2.58,2.58,0,0,0-1.91.66,2.54,2.54,0,0,0-.66,1.88v5.47a2.54,2.54,0,0,0,.66,1.88A2.58,2.58,0,0,0,552.17,67.42Z" transform="translate(-17.9)"/><path class="cls-3" d="M570.51,69.18h-5.86a3.76,3.76,0,0,1-4.09-4.09V59.19a4,4,0,0,1,1.09-3,4.08,4.08,0,0,1,3-1.08H567A3.74,3.74,0,0,1,571,59.19v3.51q0,.41-.39.41h-7.82c-.18,0-.28.08-.28.25V65a2.09,2.09,0,0,0,2.32,2.4h5.63a.34.34,0,0,1,.39.39v1Q570.9,69.18,570.51,69.18Zm-7.68-7.54h6a.24.24,0,0,0,.28-.28V59.24a2.08,2.08,0,0,0-2.32-2.38h-1.88a2.08,2.08,0,0,0-2.32,2.38v2.13A.24.24,0,0,0,562.83,61.64Z" transform="translate(-17.9)"/><path class="cls-3" d="M575.23,69.18H574a.34.34,0,0,1-.39-.39V55.48a.34.34,0,0,1,.39-.39h1.24a.34.34,0,0,1,.39.39v1.08h.11a2.8,2.8,0,0,1,2.82-1.46h1.55A3.9,3.9,0,0,1,583,56.17a4.13,4.13,0,0,1,1,3V68.8a.34.34,0,0,1-.39.39h-1.24a.34.34,0,0,1-.39-.39V59.27q0-2.4-2.32-2.4h-1.55a2.58,2.58,0,0,0-1.91.66,2.54,2.54,0,0,0-.66,1.88V68.8A.34.34,0,0,1,575.23,69.18Z" transform="translate(-17.9)"/><path class="cls-3" d="M597.88,69.18H593a.34.34,0,0,1-.39-.39v-1c0-.24.13-.36.39-.36h4.64q2.15,0,2.15-1.6v-.52a2,2,0,0,0-1.41-2l-3.26-1.38a4.8,4.8,0,0,1-2-1.37,3.32,3.32,0,0,1-.61-2.09q0-3.4,3.73-3.4h4.53a.34.34,0,0,1,.39.39v1q0,.36-.39.36h-4.17a2.34,2.34,0,0,0-1.5.41,1.22,1.22,0,0,0-.51,1v.47q0,1.16,1.58,1.77l3.26,1.46a3.59,3.59,0,0,1,1.95,1.46,5.17,5.17,0,0,1,.51,2.51Q601.83,69.18,597.88,69.18Z" transform="translate(-17.9)"/><path class="cls-3" d="M610.42,69.18H608A3.76,3.76,0,0,1,604,65.1V59.19a4,4,0,0,1,1.09-3,4.08,4.08,0,0,1,3-1.08h2.38a4.08,4.08,0,0,1,3,1.08,4,4,0,0,1,1.09,3V65.1a3.76,3.76,0,0,1-4.09,4.09Zm-2.15-1.77h1.93A2.08,2.08,0,0,0,612.52,65v-5.8a2.08,2.08,0,0,0-2.32-2.38h-1.93a2.08,2.08,0,0,0-2.32,2.38V65A2.08,2.08,0,0,0,608.27,67.42Z" transform="translate(-17.9)"/><path class="cls-3" d="M622.6,69.18h-1.55a3.9,3.9,0,0,1-2.93-1.08,4.13,4.13,0,0,1-1-3V55.48a.34.34,0,0,1,.39-.39h1.24a.34.34,0,0,1,.39.39V65q0,2.4,2.29,2.4H623a2.58,2.58,0,0,0,1.91-.66,2.54,2.54,0,0,0,.66-1.88V55.48a.34.34,0,0,1,.39-.39h1.24a.34.34,0,0,1,.39.39V68.8a.34.34,0,0,1-.39.39h-1.24a.34.34,0,0,1-.39-.39V67.72h-.11A2.8,2.8,0,0,1,622.6,69.18Z" transform="translate(-17.9)"/><path class="cls-3" d="M632.16,69.18h-1.24a.34.34,0,0,1-.39-.39V55.48a.34.34,0,0,1,.39-.39h1.24a.34.34,0,0,1,.39.39v1.1h.11a2.4,2.4,0,0,1,1-1,3.62,3.62,0,0,1,1.82-.44h1.08c.24,0,.36.13.36.39v1a.44.44,0,0,1-.08.29.29.29,0,0,1-.28.07h-1.49a2.42,2.42,0,0,0-1.91.75,3,3,0,0,0-.66,2V68.8A.34.34,0,0,1,632.16,69.18Z" transform="translate(-17.9)"/><path class="cls-3" d="M646.82,67.8v1q0,.36-.39.36h-4a3.76,3.76,0,0,1-4.09-4.09V59.19a4,4,0,0,1,1.09-3,4.08,4.08,0,0,1,3-1.08h4a.34.34,0,0,1,.39.39v1q0,.36-.39.36h-3.78q-2.29,0-2.29,2.4V65q0,2.4,2.29,2.4h3.78A.34.34,0,0,1,646.82,67.8Z" transform="translate(-17.9)"/><path class="cls-3" d="M658.48,69.18h-5.86a3.76,3.76,0,0,1-4.09-4.09V59.19a4,4,0,0,1,1.09-3,4.08,4.08,0,0,1,3-1.08h2.32A3.74,3.74,0,0,1,659,59.19v3.51q0,.41-.39.41H650.8c-.18,0-.28.08-.28.25V65a2.09,2.09,0,0,0,2.32,2.4h5.63a.34.34,0,0,1,.39.39v1Q658.87,69.18,658.48,69.18Zm-7.68-7.54h6a.24.24,0,0,0,.28-.28V59.24a2.08,2.08,0,0,0-2.32-2.38h-1.88a2.08,2.08,0,0,0-2.32,2.38v2.13A.24.24,0,0,0,650.8,61.64Z" transform="translate(-17.9)"/><path class="cls-4" d="M250.14,220.08V162.84a1.41,1.41,0,0,1,1.6-1.6h23.12q6.86,0,10.76,3.81t3.9,10.76v31.3q0,6.86-3.9,10.72t-10.76,3.85H251.74A1.41,1.41,0,0,1,250.14,220.08Zm10.15-6.39h13.25q6.77,0,6.77-7V176.19q0-7-6.77-7H260.29c-.69,0-1,.31-1,.94v42.49A.91.91,0,0,0,260.29,213.69Z" transform="translate(-17.9)"/><path class="cls-4" d="M324.68,221.68h-8.27q-7,0-10.76-3.85t-3.81-10.72v-18.8q0-7,3.81-10.76t10.76-3.81h8.27q6.86,0,10.76,3.81t3.9,10.76v18.8q0,6.86-3.9,10.72T324.68,221.68Zm-7-8h5.73q6.77,0,6.77-6.86V188.6q0-6.86-6.77-6.86h-5.73q-3.57,0-5.17,1.64T311,188.6v18.24q0,3.57,1.6,5.22T317.73,213.69Z" transform="translate(-17.9)"/><path class="cls-4" d="M380.71,215.29v4.89q0,1.5-1.69,1.5H365.2q-7,0-10.76-3.85t-3.81-10.72v-18.8q0-7,3.81-10.76t10.76-3.81H379q1.69,0,1.69,1.6v4.89q0,1.5-1.69,1.5h-12.5q-6.77,0-6.77,7v18q0,7,6.77,7H379Q380.71,213.69,380.71,215.29Z" transform="translate(-17.9)"/><path class="cls-4" d="M408.81,221.68h-4.23q-6.77,0-10.39-3.81t-3.62-10.76V175.34a1.41,1.41,0,0,1,1.6-1.6h5.92a1.41,1.41,0,0,1,1.6,1.6v31.4q0,7,6.77,7H411q7.71,0,7.71-8V175.34a1.41,1.41,0,0,1,1.6-1.6h5.92q1.69,0,1.69,1.6v44.74q0,1.6-1.69,1.6h-5.92a1.41,1.41,0,0,1-1.6-1.6V216.7h-.38Q416.05,221.68,408.81,221.68Z" transform="translate(-17.9)"/><path class="cls-4" d="M448.58,221.68h-5.92a1.41,1.41,0,0,1-1.6-1.6V175.34a1.41,1.41,0,0,1,1.6-1.6h5.92a1.41,1.41,0,0,1,1.6,1.6v3.38h.38q2.73-5,10-5h3.1q8.18,0,11.66,6.2a10.23,10.23,0,0,1,4.61-4.61,14.36,14.36,0,0,1,6.67-1.6h3q6.86,0,10.48,3.81t3.62,10.76v31.77a1.41,1.41,0,0,1-1.6,1.6h-6a1.41,1.41,0,0,1-1.6-1.6v-31.4q0-7-6.77-7H485q-7.8,0-7.8,8.18v30.17q0,1.6-1.69,1.6h-5.92a1.41,1.41,0,0,1-1.6-1.6v-31.4q0-7-6.77-7h-3.29q-7.71,0-7.71,8v30.36A1.41,1.41,0,0,1,448.58,221.68Z" transform="translate(-17.9)"/><path class="cls-4" d="M550.38,221.68h-20.3q-7,0-10.76-3.85t-3.81-10.72v-18.8q0-7,3.81-10.76t10.76-3.81h7.71q7,0,10.81,3.81t3.85,10.76v11.94a1.5,1.5,0,0,1-1.69,1.69H525.56q-1,0-1,.94v4q0,6.86,6.86,6.86h19a1.5,1.5,0,0,1,1.69,1.69v4.7Q552.07,221.68,550.38,221.68Zm-24.82-26.13h16.83a.83.83,0,0,0,.94-.94v-6q0-3.57-1.6-5.22t-5.17-1.64h-5.17q-3.57,0-5.17,1.64t-1.6,5.22v6A.83.83,0,0,0,525.56,195.55Z" transform="translate(-17.9)"/><path class="cls-4" d="M571.71,221.68h-5.92a1.41,1.41,0,0,1-1.6-1.6V175.34a1.41,1.41,0,0,1,1.6-1.6h5.92a1.41,1.41,0,0,1,1.6,1.6v3.38h.38q2.26-5,9.49-5h4.14q6.86,0,10.53,3.76t3.67,10.81v31.77q0,1.6-1.69,1.6H593.9a1.41,1.41,0,0,1-1.6-1.6v-31.4q0-7-6.86-7H581q-7.71,0-7.71,8v30.36A1.41,1.41,0,0,1,571.71,221.68Z" transform="translate(-17.9)"/><path class="cls-4" d="M615.61,181.73H611.1a1.81,1.81,0,0,1-1.27-.33,1.64,1.64,0,0,1-.33-1.17v-4.89a1.41,1.41,0,0,1,1.6-1.6h4.51a.83.83,0,0,0,.94-.94v-8.46q0-1.6,1.69-1.6h5.92a1.41,1.41,0,0,1,1.6,1.6v8.46q0,.94,1,.94h8.74q1.69,0,1.69,1.6v4.89q0,1.5-1.69,1.5H626.8q-1,0-1,.94v24.16q0,6.86,7,6.86h3.67q1.69,0,1.69,1.6v4.89q0,1.5-1.69,1.5H631.4q-7,0-10.9-3.76t-3.95-10.62V182.67A.83.83,0,0,0,615.61,181.73Z" transform="translate(-17.9)"/><path class="cls-4" d="M665.9,221.68h-3.67q-7,0-10.76-3.85t-3.81-10.72v-18.8q0-7,3.81-10.76t10.76-3.81h21.06q1.69,0,1.69,1.6v44.74q0,1.6-1.69,1.6h-5.92a1.41,1.41,0,0,1-1.6-1.6V216.7h-.38Q673.14,221.68,665.9,221.68Zm9.87-16v-23q0-.94-1-.94H663.55q-6.77,0-6.77,7v18q0,7,6.77,7h4.51Q675.77,213.69,675.77,205.7Z" transform="translate(-17.9)"/><path class="cls-4" d="M699.55,181.73H695a1.81,1.81,0,0,1-1.27-.33,1.64,1.64,0,0,1-.33-1.17v-4.89a1.41,1.41,0,0,1,1.6-1.6h4.51a.83.83,0,0,0,.94-.94v-8.46q0-1.6,1.69-1.6h5.92a1.41,1.41,0,0,1,1.6,1.6v8.46q0,.94,1,.94h8.74q1.69,0,1.69,1.6v4.89q0,1.5-1.69,1.5h-8.74q-1,0-1,.94v24.16q0,6.86,7,6.86h3.67q1.69,0,1.69,1.6v4.89q0,1.5-1.69,1.5h-5.08q-7,0-10.9-3.76t-3.95-10.62V182.67A.83.83,0,0,0,699.55,181.73Z" transform="translate(-17.9)"/><path class="cls-4" d="M733,165.75V157.2a1.33,1.33,0,0,1,1.5-1.5h6.11a1.33,1.33,0,0,1,1.5,1.5v8.55q0,1.6-1.5,1.6h-6.11Q733,167.35,733,165.75Zm0,54.33V175.34q0-1.6,1.5-1.6h6a1.41,1.41,0,0,1,1.6,1.6v44.74a1.82,1.82,0,0,1-.33,1.27,1.64,1.64,0,0,1-1.17.33h-6A1.41,1.41,0,0,1,733,220.08Z" transform="translate(-17.9)"/><path class="cls-4" d="M777.76,221.68h-8.27q-7,0-10.76-3.85t-3.81-10.72v-18.8q0-7,3.81-10.76t10.76-3.81h8.27q6.86,0,10.76,3.81t3.9,10.76v18.8q0,6.86-3.9,10.72T777.76,221.68Zm-7-8h5.73q6.77,0,6.77-6.86V188.6q0-6.86-6.77-6.86H770.8q-3.57,0-5.17,1.64T764,188.6v18.24q0,3.57,1.6,5.22T770.8,213.69Z" transform="translate(-17.9)"/><path class="cls-4" d="M812.16,221.68h-5.92a1.41,1.41,0,0,1-1.6-1.6V175.34a1.41,1.41,0,0,1,1.6-1.6h5.92a1.41,1.41,0,0,1,1.6,1.6v3.38h.38q2.26-5,9.49-5h4.14q6.86,0,10.53,3.76T842,188.31v31.77q0,1.6-1.69,1.6h-5.92a1.41,1.41,0,0,1-1.6-1.6v-31.4q0-7-6.86-7h-4.42q-7.71,0-7.71,8v30.36A1.41,1.41,0,0,1,812.16,221.68Z" transform="translate(-17.9)"/><g id="_Group_" data-name="&lt;Group&gt;"><polygon class="cls-2" points="225.38 47.97 225.38 113.03 169.03 145.57 169.03 80.53 225.38 47.97"/><polygon class="cls-5" points="112.68 48 112.67 47.99 112.67 47.97 169.03 15.43 225.38 47.97 169.03 80.53 112.68 48"/><polygon class="cls-3" points="169.03 145.59 169.03 210.66 112.67 243.19 112.67 178.13 169.03 145.59"/><polygon class="cls-2" points="169.03 145.57 169.03 145.59 112.7 113.07 112.72 113.06 169.03 145.57"/><polygon class="cls-6" points="169.03 80.53 169.03 145.57 112.72 113.06 169.03 80.53"/><polygon class="cls-6" points="112.68 48 169.03 80.53 112.72 113.06 112.67 113.03 112.67 47.99 112.68 48"/><polygon class="cls-7" points="169.03 145.59 112.67 178.13 112.67 178.09 112.67 176.19 112.67 113.08 112.7 113.07 169.03 145.59"/><polygon class="cls-8" points="112.67 113.06 112.65 113.07 56.33 80.53 56.35 80.51 112.67 47.99 112.67 113.03 112.72 113.06 112.7 113.07 112.67 113.06"/><polygon class="cls-6" points="112.7 113.07 112.67 113.08 112.67 113.06 112.7 113.07"/><polygon class="cls-9" points="112.67 178.13 112.67 243.19 56.33 210.66 56.33 145.9 56.33 145.59 112.67 178.13"/><polygon class="cls-7" points="112.67 178.09 112.67 178.13 56.33 145.59 112.65 113.07 112.67 113.08 112.67 176.19 112.67 178.09"/><polygon class="cls-7" points="112.67 113.06 112.67 113.08 112.65 113.07 112.67 113.06"/><polygon class="cls-8" points="112.65 113.07 56.33 145.59 56.33 80.86 56.33 80.53 112.65 113.07"/><polygon class="cls-10" points="112.7 178.13 112.7 113.08 169.05 80.53 169.05 145.59 112.7 178.13"/><polygon class="cls-11" points="112.7 47.95 56.35 80.51 0 47.98 0 47.98 0 47.95 56.35 15.42 112.7 47.95"/><polygon class="cls-12" points="112.7 113.06 112.7 178.13 56.35 145.59 56.35 80.83 56.35 80.54 56.35 80.53 112.7 113.06"/></g><path class="cls-13" d="M750.09,0H688.93L864,175.07V113.91Z" transform="translate(-17.9)"/><path class="cls-14" d="M756.69,52.41l15.72-15.72a.69.69,0,0,1,1.1,0L779.79,43a6.19,6.19,0,0,1,2.09,4.29,5.92,5.92,0,0,1-2,4.26l-1.07,1.07a3.88,3.88,0,0,1-4.95.81,3.85,3.85,0,0,1,.82,2.53,4,4,0,0,1-1.35,2.6l-1.57,1.57a5.92,5.92,0,0,1-4.26,2A6.14,6.14,0,0,1,763.23,60l-6.54-6.54A.69.69,0,0,1,756.69,52.41Zm5.83,1.39,2.93,2.93a2.53,2.53,0,0,0,1.6.89,2.16,2.16,0,0,0,1.54-.78l1.52-1.52a2.06,2.06,0,0,0,.76-1.54,2.75,2.75,0,0,0-.94-1.62L767,49.26a.36.36,0,0,0-.58,0l-4,4A.36.36,0,0,0,762.52,53.79Zm7.22-7.22,2.67,2.67a2.54,2.54,0,0,0,1.58.88,2.13,2.13,0,0,0,1.56-.77l1-1a2.16,2.16,0,0,0,.79-1.54,2.47,2.47,0,0,0-.86-1.57l-2.7-2.7a.36.36,0,0,0-.58,0L769.74,46A.36.36,0,0,0,769.74,46.57Z" transform="translate(-17.9)"/><path class="cls-14" d="M779.76,76.58,771.21,68a.69.69,0,0,1,0-1.1L786.93,51.2a.69.69,0,0,1,1.1,0l8.56,8.55a.67.67,0,0,1,0,1.07l-1.78,1.78a.67.67,0,0,1-1.07,0l-5.47-5.47a.38.38,0,0,0-.6,0l-3.4,3.4a.38.38,0,0,0,0,.6l4.47,4.47a.69.69,0,0,1,0,1.1L787,68.5a.69.69,0,0,1-1.1,0L781.38,64a.38.38,0,0,0-.6,0l-3.64,3.64a.38.38,0,0,0,0,.6l5.47,5.47a.67.67,0,0,1,0,1.07l-1.78,1.78A.67.67,0,0,1,779.76,76.58Z" transform="translate(-17.9)"/><path class="cls-14" d="M788.4,85.21,786.2,83a.7.7,0,0,1,0-1.13l13.11-13.11a.36.36,0,0,0,0-.57l-3-3a.69.69,0,0,1,0-1.1l1.78-1.78a.69.69,0,0,1,1.1,0l9.89,9.89a.69.69,0,0,1,0,1.1l-1.78,1.78a.69.69,0,0,1-1.1,0l-3-3a.38.38,0,0,0-.6,0L789.49,85.21A.69.69,0,0,1,788.4,85.21Z" transform="translate(-17.9)"/><path class="cls-14" d="M796.53,93.35,794,90.84q-.47-.47.23-.86l19.86-11.59a1.06,1.06,0,0,1,1.33.24l3.48,3.48a1,1,0,0,1,.24,1.33l-11.59,19.86q-.39.71-.86.24L804.2,101a.73.73,0,0,1-.27-.51,1.25,1.25,0,0,1,.27-.59l2.15-3.61-5.1-5.1-3.61,2.15a1.15,1.15,0,0,1-.6.26A.74.74,0,0,1,796.53,93.35ZM814,83.49l-9.44,5.68L808.41,93l5.68-9.45Z" transform="translate(-17.9)"/></svg>