<svg id="Layer_1" data-name="Layer 1" xmlns="http://www.w3.org/2000/svg" viewBox="0 0 869.66 227.78"><defs><style>.cls-1{fill:#3b3b3c;}.cls-10,.cls-2{fill:#93c4ca;}.cls-3{fill:#5bb6c8;}.cls-4{fill:#fdba54;}.cls-5{fill:none;}.cls-6{fill:#8cbac0;}.cls-7{fill:#87b3b9;}.cls-8{fill:#54a7b7;}.cls-9{fill:#57aebe;}.cls-10,.cls-12{opacity:0.25;}.cls-11{fill:#efb050;}.cls-12{fill:#50a6b7;}</style></defs><title>datajointIOfull</title><path class="cls-1" d="M257.59,126.63V50.44a1.88,1.88,0,0,1,2.13-2.13h30.77q9.13,0,14.32,5.07T310,67.71v41.66q0,9.13-5.19,14.26t-14.32,5.13H259.71A1.88,1.88,0,0,1,257.59,126.63Zm13.51-8.51h17.64q9,0,9-9.26V68.21q0-9.26-9-9.26H271.1c-.92,0-1.38.42-1.38,1.25v56.54A1.22,1.22,0,0,0,271.1,118.12Z" transform="translate(-10.73 -15.86)"/><path class="cls-1" d="M350.66,128.75h-4.88q-9.26,0-14.32-5.13t-5.07-14.26v-25q0-9.26,5.07-14.32T345.78,65h28Q376,65,376,67.08v59.54q0,2.13-2.25,2.13h-7.88a1.88,1.88,0,0,1-2.13-2.13v-4.5h-.5Q360.29,128.76,350.66,128.75Zm13.14-21.27V76.84c0-.83-.46-1.25-1.38-1.25H347.53q-9,0-9,9.26v24q0,9.26,9,9.26h6Q363.79,118.12,363.79,107.49Z" transform="translate(-10.73 -15.86)"/><path class="cls-1" d="M395.44,75.59h-6a2.41,2.41,0,0,1-1.69-.44,2.19,2.19,0,0,1-.44-1.56v-6.5A1.88,1.88,0,0,1,389.43,65h6a1.11,1.11,0,0,0,1.25-1.25V52.45q0-2.13,2.25-2.13h7.88a1.88,1.88,0,0,1,2.13,2.13V63.71q0,1.25,1.38,1.25H422q2.25,0,2.25,2.13v6.5q0,2-2.25,2H410.32c-.92,0-1.38.42-1.38,1.25V109q0,9.13,9.38,9.13h4.88q2.25,0,2.25,2.13v6.5q0,2-2.25,2h-6.75q-9.26,0-14.51-5t-5.25-14.14V76.84A1.11,1.11,0,0,0,395.44,75.59Z" transform="translate(-10.73 -15.86)"/><path class="cls-1" d="M462.36,128.75h-4.88q-9.26,0-14.32-5.13t-5.07-14.26v-25q0-9.26,5.07-14.32T457.49,65h28q2.25,0,2.25,2.13v59.54q0,2.13-2.25,2.13h-7.88a1.88,1.88,0,0,1-2.13-2.13v-4.5H475Q472,128.76,462.36,128.75Zm13.14-21.27V76.84c0-.83-.46-1.25-1.38-1.25H459.24q-9,0-9,9.26v24q0,9.26,9,9.26h6Q475.5,118.12,475.5,107.49Z" transform="translate(-10.73 -15.86)"/><path class="cls-1" d="M491.69,128.45h7.88q2.13,0,2.13,2v59q0,9.13-5.13,14.26t-14.26,5.13H469.8q-9.26,0-14.39-5.13t-5.13-14.26V178.24q0-2.13,2.25-2.13h7.88a1.88,1.88,0,0,1,2.13,2.13V189q0,9.26,9,9.26h8.88q9,0,9-9.26V130.58Q489.44,128.45,491.69,128.45Z" transform="translate(-10.73 -15.86)"/><path class="cls-1" d="M549.11,208.89h-11q-9.26,0-14.32-5.13t-5.07-14.26v-25q0-9.25,5.07-14.32t14.32-5.07h11q9.13,0,14.32,5.07t5.19,14.32v25q0,9.13-5.19,14.26T549.11,208.89Zm-9.26-10.63h7.63q9,0,9-9.13V164.85q0-9.13-9-9.13h-7.63q-4.76,0-6.88,2.19t-2.13,6.94v24.27q0,4.75,2.13,6.94T539.85,198.25Z" transform="translate(-10.73 -15.86)"/><path class="cls-1" d="M585.51,134.45V123.07a1.77,1.77,0,0,1,2-2h8.13a1.77,1.77,0,0,1,2,2v11.38q0,2.13-2,2.13h-8.13Q585.51,136.58,585.51,134.45Zm0,72.3V147.21q0-2.13,2-2.13h8a1.88,1.88,0,0,1,2.13,2.13v59.54a2.42,2.42,0,0,1-.44,1.69,2.19,2.19,0,0,1-1.56.44h-8A1.88,1.88,0,0,1,585.51,206.76Z" transform="translate(-10.73 -15.86)"/><path class="cls-1" d="M625.92,208.89H618a1.88,1.88,0,0,1-2.13-2.13V147.21a1.88,1.88,0,0,1,2.13-2.13h7.88a1.88,1.88,0,0,1,2.13,2.13v4.5h.5q3-6.63,12.63-6.63h5.5q9.13,0,14,5t4.88,14.39v42.28q0,2.13-2.25,2.13h-7.88a1.88,1.88,0,0,1-2.13-2.13V165q0-9.26-9.13-9.26H638.3q-10.26,0-10.26,10.63v40.41A1.88,1.88,0,0,1,625.92,208.89Z" transform="translate(-10.73 -15.86)"/><path class="cls-1" d="M684.34,155.72h-6a2.4,2.4,0,0,1-1.69-.44,2.18,2.18,0,0,1-.44-1.56v-6.5a1.88,1.88,0,0,1,2.13-2.13h6a1.11,1.11,0,0,0,1.25-1.25V132.58q0-2.13,2.25-2.13h7.88a1.88,1.88,0,0,1,2.13,2.13v11.26c0,.83.46,1.25,1.38,1.25h11.63q2.25,0,2.25,2.13v6.5q0,2-2.25,2H699.22c-.92,0-1.38.42-1.38,1.25v32.15q0,9.13,9.38,9.13h4.88q2.25,0,2.25,2.13v6.5q0,2-2.25,2h-6.75q-9.26,0-14.51-5t-5.25-14.14V157A1.11,1.11,0,0,0,684.34,155.72Z" transform="translate(-10.73 -15.86)"/><rect class="cls-2" x="478.88" y="67.48" width="43.16" height="43.16"/><rect class="cls-3" x="435.31" y="114.6" width="41.35" height="41.35"/><path class="cls-4" d="M777.44,146.57V207.3q0,2.12-2.63,2.12H764.18q-2.63,0-2.63-2.12V146.57q0-2.12,2.63-2.12h10.63Q777.44,144.45,777.44,146.57Z" transform="translate(-10.73 -15.86)"/><path class="cls-4" d="M831.48,209.43h-14q-9.88,0-15.26-4.24T796.83,193v-32q0-8,5.38-12.23t15.26-4.24h14q9.88,0,15.26,4.24t5.38,12.23v32q0,8-5.38,12.23T831.48,209.43ZM820,198.31h8.88q4,0,5.69-1.36t1.69-4.6V161.53q0-3.23-1.69-4.6t-5.69-1.36H820q-4,0-5.63,1.36t-1.63,4.6v30.82q0,3.23,1.63,4.6T820,198.31Z" transform="translate(-10.73 -15.86)"/><rect class="cls-4" x="750.96" y="101.81" width="15.85" height="15.85"/><rect class="cls-5" x="214.03" y="17.45" width="655.64" height="189.31"/><rect class="cls-4" x="717.91" y="178.05" width="15.85" height="15.85"/><g id="_Group_" data-name="&lt;Group&gt;"><polygon class="cls-2" points="225.38 32.55 225.38 97.61 169.03 130.15 169.03 65.11 225.38 32.55"/><polygon class="cls-6" points="112.68 32.58 112.67 32.57 112.67 32.55 169.03 0.01 225.38 32.55 169.03 65.11 112.68 32.58"/><polygon class="cls-3" points="169.03 130.17 169.03 195.24 112.67 227.78 112.67 162.71 169.03 130.17"/><polygon class="cls-2" points="169.03 130.15 169.03 130.17 112.7 97.65 112.72 97.64 169.03 130.15"/><polygon class="cls-7" points="169.03 65.11 169.03 130.15 112.72 97.64 169.03 65.11"/><polygon class="cls-7" points="112.68 32.58 169.03 65.11 112.72 97.64 112.67 97.61 112.67 32.57 112.68 32.58"/><polygon class="cls-8" points="169.03 130.17 112.67 162.71 112.67 162.67 112.67 160.77 112.67 97.67 112.7 97.65 169.03 130.17"/><polygon class="cls-4" points="112.67 97.64 112.65 97.65 56.33 65.11 56.35 65.09 112.67 32.57 112.67 97.61 112.72 97.64 112.7 97.65 112.67 97.64"/><polygon class="cls-7" points="112.7 97.65 112.67 97.67 112.67 97.64 112.7 97.65"/><polygon class="cls-9" points="112.67 162.71 112.67 227.78 56.33 195.24 56.33 130.48 56.33 130.17 112.67 162.71"/><polygon class="cls-8" points="112.67 162.67 112.67 162.71 56.33 130.17 112.65 97.65 112.67 97.67 112.67 160.77 112.67 162.67"/><polygon class="cls-8" points="112.67 97.64 112.67 97.67 112.65 97.65 112.67 97.64"/><polygon class="cls-4" points="112.65 97.65 56.33 130.17 56.33 65.44 56.33 65.11 112.65 97.65"/><polygon class="cls-10" points="112.7 162.71 112.7 97.67 169.05 65.11 169.05 130.18 112.7 162.71"/><polygon class="cls-11" points="112.7 32.53 56.35 65.09 0 32.56 0 32.56 0 32.53 56.35 0 112.7 32.53"/><polygon class="cls-12" points="112.7 97.64 112.7 162.71 56.35 130.18 56.35 65.42 56.35 65.12 56.35 65.11 112.7 97.64"/></g></svg>