<svg id="Layer_1" data-name="Layer 1" xmlns="http://www.w3.org/2000/svg" viewBox="0 0 864 252"><defs><style>.cls-1{fill:#3b3b3c;}.cls-10,.cls-2{fill:#93c4ca;}.cls-3{fill:#5bb6c8;}.cls-12,.cls-4{fill:#50a6b7;}.cls-5{fill:#8cbac0;}.cls-6{fill:#87b3b9;}.cls-7{fill:#54a7b7;}.cls-8{fill:#fdba54;}.cls-9{fill:#57aebe;}.cls-10,.cls-12{opacity:0.25;}.cls-11{fill:#efb050;}.cls-13{fill:#fff;}</style></defs><title>djDocsBETA</title><path class="cls-1" d="M375.94,90.28V42.86a1.17,1.17,0,0,1,1.32-1.32h19.15q5.68,0,8.92,3.15t3.23,8.92V79.53q0,5.69-3.23,8.88t-8.92,3.19H377.26A1.17,1.17,0,0,1,375.94,90.28ZM384.35,85h11q5.61,0,5.61-5.76V53.92q0-5.76-5.61-5.76h-11c-.57,0-.86.26-.86.78V84.13A.76.76,0,0,0,384.35,85Z"/><path class="cls-1" d="M433.87,91.6h-3q-5.76,0-8.92-3.19t-3.15-8.88V64q0-5.76,3.15-8.92t8.92-3.15h17.44q1.4,0,1.4,1.32V90.28q0,1.32-1.4,1.32h-4.91A1.17,1.17,0,0,1,442,90.28v-2.8h-.31Q439.86,91.6,433.87,91.6ZM442,78.37V59.29q0-.78-.86-.78h-9.27q-5.61,0-5.61,5.76V79.22q0,5.76,5.61,5.76h3.74Q442,85,442,78.37Z"/><path class="cls-1" d="M461.74,58.51H458a1.5,1.5,0,0,1-1.05-.27,1.36,1.36,0,0,1-.27-1v-4A1.17,1.17,0,0,1,458,51.89h3.74a.69.69,0,0,0,.78-.78v-7q0-1.32,1.4-1.32h4.91a1.17,1.17,0,0,1,1.32,1.32v7q0,.78.86.78h7.24q1.4,0,1.4,1.32v4q0,1.25-1.4,1.25H471q-.86,0-.86.78v20Q470.15,85,476,85h3q1.4,0,1.4,1.32v4q0,1.25-1.4,1.25h-4.21q-5.76,0-9-3.11t-3.27-8.8V59.29A.69.69,0,0,0,461.74,58.51Z"/><path class="cls-1" d="M503.4,91.6h-3q-5.76,0-8.92-3.19t-3.15-8.88V64q0-5.76,3.15-8.92t8.92-3.15H517.8q1.4,0,1.4,1.32V90.28q0,1.32-1.4,1.32H512.9a1.17,1.17,0,0,1-1.32-1.32v-2.8h-.31Q509.39,91.6,503.4,91.6Zm8.18-13.24V59.29q0-.78-.86-.78h-9.27q-5.61,0-5.61,5.76V79.22q0,5.76,5.61,5.76h3.74Q511.57,85,511.57,78.37Z"/><path class="cls-1" d="M521.87,91.41h4.91q1.32,0,1.32,1.25v36.75q0,5.68-3.19,8.88T516,141.48h-7.79q-5.76,0-9-3.19t-3.19-8.88v-7q0-1.32,1.4-1.32h4.91a1.17,1.17,0,0,1,1.32,1.32v6.7q0,5.76,5.61,5.76h5.53q5.61,0,5.61-5.76V92.74Q520.47,91.41,521.87,91.41Z"/><path class="cls-1" d="M557.61,141.48h-6.85q-5.76,0-8.92-3.19t-3.15-8.88V113.84q0-5.76,3.15-8.92t8.92-3.15h6.85q5.68,0,8.92,3.15t3.23,8.92v15.57q0,5.68-3.23,8.88T557.61,141.48Zm-5.76-6.62h4.75q5.61,0,5.61-5.68v-15.1q0-5.68-5.61-5.68h-4.75a5.77,5.77,0,0,0-4.28,1.36,6,6,0,0,0-1.32,4.32v15.1a6,6,0,0,0,1.32,4.32A5.76,5.76,0,0,0,551.84,134.86Z"/><path class="cls-1" d="M580.27,95.15V88.06a1.1,1.1,0,0,1,1.25-1.25h5.06a1.1,1.1,0,0,1,1.25,1.25v7.09q0,1.32-1.25,1.32h-5.06Q580.27,96.47,580.27,95.15Zm0,45V103.09q0-1.32,1.25-1.32h5a1.17,1.17,0,0,1,1.32,1.32v37.06a1.51,1.51,0,0,1-.27,1.05,1.36,1.36,0,0,1-1,.27h-5A1.17,1.17,0,0,1,580.27,140.16Z"/><path class="cls-1" d="M605.41,141.48h-4.91a1.17,1.17,0,0,1-1.32-1.32V103.09a1.17,1.17,0,0,1,1.32-1.32h4.91a1.17,1.17,0,0,1,1.32,1.32v2.8H607q1.87-4.13,7.86-4.13h3.43q5.68,0,8.72,3.11t3,9v26.32q0,1.32-1.4,1.32h-4.91a1.17,1.17,0,0,1-1.32-1.32v-26q0-5.76-5.68-5.76h-3.66q-6.39,0-6.38,6.62v25.15A1.17,1.17,0,0,1,605.41,141.48Z"/><path class="cls-1" d="M641.78,108.39H638a1.5,1.5,0,0,1-1.05-.27,1.36,1.36,0,0,1-.27-1v-4a1.17,1.17,0,0,1,1.32-1.32h3.74a.69.69,0,0,0,.78-.78V94q0-1.32,1.4-1.32h4.91A1.17,1.17,0,0,1,650.18,94v7q0,.78.86.78h7.24q1.4,0,1.4,1.32v4q0,1.25-1.4,1.25H651q-.86,0-.86.78v20q0,5.69,5.84,5.68h3q1.4,0,1.4,1.32v4q0,1.25-1.4,1.25h-4.21q-5.76,0-9-3.11t-3.27-8.8v-20.4A.69.69,0,0,0,641.78,108.39Z"/><rect class="cls-2" x="520.57" y="66.58" width="23.62" height="23.62"/><rect class="cls-3" x="495.57" y="92.67" width="23.62" height="23.62"/><path class="cls-3" d="M551.79,83.4h-2.23a3.53,3.53,0,0,1-3.84-3.84V74a3.53,3.53,0,0,1,3.84-3.84h2.23A3.53,3.53,0,0,1,555.64,74v5.55a3.53,3.53,0,0,1-3.84,3.84Zm-2-1.66h1.82a2,2,0,0,0,2.18-2.23V74.06a2,2,0,0,0-2.18-2.23h-1.82a2,2,0,0,0-2.18,2.23v5.45A2,2,0,0,0,549.77,81.74Z"/><path class="cls-3" d="M559.71,87.19h-1.17a.32.32,0,0,1-.36-.36V70.53a.32.32,0,0,1,.36-.36h1.17a.32.32,0,0,1,.36.36v1h.1a2.63,2.63,0,0,1,2.65-1.38h1.56a3.62,3.62,0,0,1,2.74,1,3.92,3.92,0,0,1,1,2.83v5.55a3.92,3.92,0,0,1-1,2.83,3.62,3.62,0,0,1-2.74,1h-1.56A2.63,2.63,0,0,1,560.18,82h-.1v4.8A.32.32,0,0,1,559.71,87.19Zm2.78-5.45H564a2,2,0,0,0,2.21-2.26v-5.4A2,2,0,0,0,564,71.83h-1.53a2.42,2.42,0,0,0-1.79.62,2.39,2.39,0,0,0-.62,1.76v5.14a2.39,2.39,0,0,0,.62,1.76A2.42,2.42,0,0,0,562.49,81.74Z"/><path class="cls-3" d="M579.72,83.4h-5.5a3.53,3.53,0,0,1-3.84-3.84V74a3.53,3.53,0,0,1,3.84-3.84h2.18a3.79,3.79,0,0,1,2.8,1,3.83,3.83,0,0,1,1,2.83v3.3q0,.39-.36.39H572.5c-.17,0-.26.08-.26.23v1.58q0,2.26,2.18,2.26h5.29a.32.32,0,0,1,.36.36v.93Q580.08,83.4,579.72,83.4Zm-7.22-7.09h5.61a.23.23,0,0,0,.26-.26v-2a2,2,0,0,0-2.18-2.23h-1.76a2,2,0,0,0-2.18,2.23v2A.23.23,0,0,0,572.5,76.32Z"/><path class="cls-3" d="M584.16,83.4H583a.32.32,0,0,1-.36-.36V70.53a.32.32,0,0,1,.36-.36h1.17a.32.32,0,0,1,.36.36v1h.1a2.63,2.63,0,0,1,2.65-1.38h1.45a3.67,3.67,0,0,1,2.75,1,3.89,3.89,0,0,1,1,2.83v9a.32.32,0,0,1-.36.36h-1.17a.32.32,0,0,1-.36-.36v-9q0-2.26-2.18-2.26h-1.45a2.42,2.42,0,0,0-1.79.62,2.39,2.39,0,0,0-.62,1.76V83A.32.32,0,0,1,584.16,83.4Z"/><path class="cls-3" d="M605.44,83.4h-4.62a.32.32,0,0,1-.36-.36v-.91q0-.34.36-.34h4.36q2,0,2-1.51v-.49a1.89,1.89,0,0,0-1.32-1.9l-3.06-1.3a4.52,4.52,0,0,1-1.89-1.29,3.12,3.12,0,0,1-.57-2q0-3.19,3.5-3.19h4.26a.32.32,0,0,1,.36.36v.91q0,.34-.36.34H604.2a2.2,2.2,0,0,0-1.41.39,1.14,1.14,0,0,0-.48.91v.44q0,1.09,1.48,1.66l3.06,1.38a3.38,3.38,0,0,1,1.83,1.38,4.87,4.87,0,0,1,.48,2.36Q609.15,83.4,605.44,83.4Z"/><path class="cls-3" d="M617.22,83.4H615a3.53,3.53,0,0,1-3.84-3.84V74A3.53,3.53,0,0,1,615,70.17h2.23A3.53,3.53,0,0,1,621.07,74v5.55a3.53,3.53,0,0,1-3.84,3.84Zm-2-1.66H617a2,2,0,0,0,2.18-2.23V74.06A2,2,0,0,0,617,71.83H615.2A2,2,0,0,0,613,74.06v5.45A2,2,0,0,0,615.2,81.74Z"/><path class="cls-3" d="M628.67,83.4h-1.45a3.66,3.66,0,0,1-2.75-1,3.88,3.88,0,0,1-1-2.83v-9a.32.32,0,0,1,.36-.36H625a.32.32,0,0,1,.36.36v9q0,2.26,2.15,2.26H629a2.43,2.43,0,0,0,1.79-.62,2.39,2.39,0,0,0,.62-1.76V70.53a.32.32,0,0,1,.36-.36H633a.32.32,0,0,1,.36.36V83a.32.32,0,0,1-.36.36h-1.17a.32.32,0,0,1-.36-.36V82h-.1A2.63,2.63,0,0,1,628.67,83.4Z"/><path class="cls-3" d="M637.65,83.4h-1.17a.32.32,0,0,1-.36-.36V70.53a.32.32,0,0,1,.36-.36h1.17a.32.32,0,0,1,.36.36v1h.1a2.25,2.25,0,0,1,1-1,3.39,3.39,0,0,1,1.71-.42h1c.22,0,.34.12.34.36v1a.41.41,0,0,1-.08.27.27.27,0,0,1-.26.06h-1.4a2.27,2.27,0,0,0-1.79.7,2.79,2.79,0,0,0-.62,1.92V83A.32.32,0,0,1,637.65,83.4Z"/><path class="cls-3" d="M651.43,82.1v1q0,.34-.36.34H647.3a3.53,3.53,0,0,1-3.84-3.84V74a3.53,3.53,0,0,1,3.84-3.84h3.76a.32.32,0,0,1,.36.36v1q0,.34-.36.34h-3.56q-2.15,0-2.15,2.26v5.4q0,2.26,2.15,2.26h3.56A.32.32,0,0,1,651.43,82.1Z"/><path class="cls-3" d="M662.38,83.4h-5.5A3.53,3.53,0,0,1,653,79.56V74a3.53,3.53,0,0,1,3.84-3.84h2.18a3.79,3.79,0,0,1,2.8,1,3.83,3.83,0,0,1,1,2.83v3.3q0,.39-.36.39h-7.35c-.17,0-.26.08-.26.23v1.58q0,2.26,2.18,2.26h5.29a.32.32,0,0,1,.36.36v.93Q662.75,83.4,662.38,83.4Zm-7.22-7.09h5.61a.23.23,0,0,0,.26-.26v-2a2,2,0,0,0-2.18-2.23h-1.76a2,2,0,0,0-2.18,2.23v2A.23.23,0,0,0,655.17,76.32Z"/><path class="cls-4" d="M278.69,225.2V171.41a1.33,1.33,0,0,1,1.5-1.5h21.73q6.45,0,10.11,3.58t3.67,10.11V213q0,6.45-3.67,10.07t-10.11,3.62H280.19A1.33,1.33,0,0,1,278.69,225.2Zm9.54-6h12.45q6.36,0,6.36-6.54V183.95q0-6.53-6.36-6.54H288.23c-.65,0-1,.3-1,.88v39.92A.86.86,0,0,0,288.23,219.19Z"/><path class="cls-4" d="M348.73,226.7H341q-6.54,0-10.11-3.62T327.27,213V195.34q0-6.54,3.58-10.11T341,181.65h7.77q6.45,0,10.11,3.58t3.67,10.11V213q0,6.45-3.67,10.07T348.73,226.7Zm-6.54-7.51h5.39q6.36,0,6.36-6.45V195.61q0-6.45-6.36-6.45h-5.39q-3.36,0-4.86,1.55t-1.5,4.9v17.14q0,3.36,1.5,4.9T342.19,219.19Z"/><path class="cls-4" d="M401.37,220.69v4.59q0,1.41-1.59,1.41h-13q-6.54,0-10.11-3.62T373.11,213V195.34q0-6.54,3.58-10.11t10.11-3.58h13q1.59,0,1.59,1.5v4.59q0,1.41-1.59,1.41H388q-6.36,0-6.36,6.54v17q0,6.54,6.36,6.54h11.75Q401.37,219.19,401.37,220.69Z"/><path class="cls-4" d="M427.78,226.7h-4q-6.36,0-9.76-3.58T410.65,213V183.15a1.33,1.33,0,0,1,1.5-1.5h5.56a1.33,1.33,0,0,1,1.5,1.5v29.5q0,6.54,6.36,6.54h4.24q7.24,0,7.24-7.51V183.15a1.33,1.33,0,0,1,1.5-1.5h5.57q1.59,0,1.59,1.5v42q0,1.5-1.59,1.5h-5.57a1.33,1.33,0,0,1-1.5-1.5V222h-.35Q434.58,226.7,427.78,226.7Z"/><path class="cls-4" d="M465.15,226.7h-5.56a1.33,1.33,0,0,1-1.5-1.5v-42a1.33,1.33,0,0,1,1.5-1.5h5.56a1.33,1.33,0,0,1,1.5,1.5v3.18H467q2.56-4.68,9.36-4.68h2.92q7.68,0,11,5.83a9.62,9.62,0,0,1,4.33-4.33,13.51,13.51,0,0,1,6.27-1.5h2.83q6.45,0,9.85,3.58t3.4,10.11V225.2a1.33,1.33,0,0,1-1.5,1.5h-5.65a1.33,1.33,0,0,1-1.5-1.5V195.7q0-6.54-6.36-6.54h-2.56q-7.33,0-7.33,7.68V225.2q0,1.5-1.59,1.5h-5.56a1.33,1.33,0,0,1-1.5-1.5V195.7q0-6.54-6.36-6.54h-3.09q-7.24,0-7.24,7.51V225.2A1.33,1.33,0,0,1,465.15,226.7Z"/><path class="cls-4" d="M560.8,226.7H541.72q-6.54,0-10.11-3.62T528,213V195.34q0-6.54,3.58-10.11t10.11-3.58H549q6.53,0,10.16,3.58t3.62,10.11v11.22a1.41,1.41,0,0,1-1.59,1.59H537.49c-.65,0-1,.29-1,.88v3.8q0,6.45,6.45,6.45H560.8a1.41,1.41,0,0,1,1.59,1.59v4.42Q562.39,226.7,560.8,226.7Zm-23.32-24.55H553.3a.78.78,0,0,0,.88-.88v-5.65q0-3.35-1.5-4.9t-4.86-1.55H543q-3.36,0-4.86,1.55t-1.5,4.9v5.65A.78.78,0,0,0,537.49,202.14Z"/><path class="cls-4" d="M580.85,226.7h-5.56a1.33,1.33,0,0,1-1.5-1.5v-42a1.33,1.33,0,0,1,1.5-1.5h5.56a1.33,1.33,0,0,1,1.5,1.5v3.18h.35q2.12-4.68,8.92-4.68h3.89q6.45,0,9.89,3.53t3.44,10.16V225.2q0,1.5-1.59,1.5H601.7a1.33,1.33,0,0,1-1.5-1.5V195.7q0-6.54-6.45-6.54H589.6q-7.24,0-7.24,7.51V225.2A1.33,1.33,0,0,1,580.85,226.7Z"/><path class="cls-4" d="M622.1,189.16h-4.24a1.7,1.7,0,0,1-1.19-.31,1.54,1.54,0,0,1-.31-1.1v-4.59a1.33,1.33,0,0,1,1.5-1.5h4.24a.78.78,0,0,0,.88-.88v-7.95q0-1.5,1.59-1.5h5.57a1.33,1.33,0,0,1,1.5,1.5v7.95q0,.88,1,.88h8.21q1.59,0,1.59,1.5v4.59q0,1.41-1.59,1.41h-8.21q-1,0-1,.88v22.7q0,6.45,6.63,6.45h3.44q1.59,0,1.59,1.5v4.59q0,1.41-1.59,1.41h-4.77q-6.54,0-10.25-3.53t-3.71-10V190A.78.78,0,0,0,622.1,189.16Z"/><path class="cls-4" d="M669.36,226.7h-3.45q-6.54,0-10.11-3.62T652.22,213V195.34q0-6.54,3.58-10.11t10.11-3.58H685.7q1.59,0,1.59,1.5v42q0,1.5-1.59,1.5h-5.56a1.33,1.33,0,0,1-1.5-1.5V222h-.35Q676.16,226.7,669.36,226.7Zm9.27-15V190q0-.88-1-.88H667.15q-6.36,0-6.36,6.54v17q0,6.54,6.36,6.54h4.24Q678.63,219.19,678.63,211.68Z"/><path class="cls-4" d="M701,189.16h-4.24a1.7,1.7,0,0,1-1.19-.31,1.54,1.54,0,0,1-.31-1.1v-4.59a1.33,1.33,0,0,1,1.5-1.5H701a.78.78,0,0,0,.88-.88v-7.95q0-1.5,1.59-1.5H709a1.33,1.33,0,0,1,1.5,1.5v7.95q0,.88,1,.88h8.21q1.59,0,1.59,1.5v4.59q0,1.41-1.59,1.41h-8.21q-1,0-1,.88v22.7q0,6.45,6.63,6.45h3.44q1.59,0,1.59,1.5v4.59q0,1.41-1.59,1.41h-4.77q-6.54,0-10.25-3.53t-3.71-10V190A.78.78,0,0,0,701,189.16Z"/><path class="cls-4" d="M732.42,174.14v-8a1.25,1.25,0,0,1,1.41-1.41h5.74a1.25,1.25,0,0,1,1.41,1.41v8q0,1.5-1.41,1.5h-5.74Q732.42,175.65,732.42,174.14Zm0,51.05v-42q0-1.5,1.41-1.5h5.65a1.33,1.33,0,0,1,1.5,1.5v42a1.7,1.7,0,0,1-.31,1.19,1.54,1.54,0,0,1-1.1.31h-5.65A1.33,1.33,0,0,1,732.42,225.2Z"/><path class="cls-4" d="M774.47,226.7h-7.77q-6.54,0-10.11-3.62T753,213V195.34q0-6.54,3.58-10.11t10.11-3.58h7.77q6.45,0,10.11,3.58t3.67,10.11V213q0,6.45-3.67,10.07T774.47,226.7Zm-6.54-7.51h5.39q6.36,0,6.36-6.45V195.61q0-6.45-6.36-6.45h-5.39q-3.36,0-4.86,1.55t-1.5,4.9v17.14q0,3.36,1.5,4.9T767.93,219.19Z"/><path class="cls-4" d="M806.79,226.7h-5.56a1.33,1.33,0,0,1-1.5-1.5v-42a1.33,1.33,0,0,1,1.5-1.5h5.56a1.33,1.33,0,0,1,1.5,1.5v3.18h.35q2.12-4.68,8.92-4.68h3.89q6.45,0,9.89,3.53t3.44,10.16V225.2q0,1.5-1.59,1.5h-5.56a1.33,1.33,0,0,1-1.5-1.5V195.7q0-6.54-6.45-6.54h-4.15q-7.24,0-7.24,7.51V225.2A1.33,1.33,0,0,1,806.79,226.7Z"/><g id="_Group_" data-name="&lt;Group&gt;"><polygon class="cls-2" points="272.24 63.46 272.24 124.61 219.29 155.18 219.29 94.06 272.24 63.46"/><polygon class="cls-5" points="166.34 63.49 166.34 63.49 166.34 63.46 219.29 32.89 272.24 63.46 219.29 94.06 166.34 63.49"/><polygon class="cls-3" points="219.29 155.2 219.29 216.34 166.34 246.91 166.34 185.77 219.29 155.2"/><polygon class="cls-2" points="219.29 155.18 219.29 155.2 166.36 124.64 166.38 124.63 219.29 155.18"/><polygon class="cls-6" points="219.29 94.06 219.29 155.18 166.38 124.63 219.29 94.06"/><polygon class="cls-6" points="166.34 63.49 219.29 94.06 166.38 124.63 166.34 124.61 166.34 63.49 166.34 63.49"/><polygon class="cls-7" points="219.29 155.2 166.34 185.77 166.34 185.73 166.34 183.95 166.34 124.65 166.36 124.64 219.29 155.2"/><polygon class="cls-8" points="166.34 124.63 166.32 124.64 113.39 94.06 113.41 94.05 166.34 63.49 166.34 124.61 166.38 124.63 166.36 124.64 166.34 124.63"/><polygon class="cls-6" points="166.36 124.64 166.34 124.65 166.34 124.63 166.36 124.64"/><polygon class="cls-9" points="166.34 185.77 166.34 246.91 113.39 216.34 113.39 155.49 113.39 155.2 166.34 185.77"/><polygon class="cls-7" points="166.34 185.73 166.34 185.77 113.39 155.2 166.32 124.64 166.34 124.65 166.34 183.95 166.34 185.73"/><polygon class="cls-7" points="166.34 124.63 166.34 124.65 166.32 124.64 166.34 124.63"/><polygon class="cls-8" points="166.32 124.64 113.39 155.2 113.39 94.37 113.39 94.06 166.32 124.64"/><polygon class="cls-10" points="166.36 185.77 166.36 124.65 219.31 94.06 219.31 155.2 166.36 185.77"/><polygon class="cls-11" points="166.36 63.45 113.41 94.05 60.47 63.48 60.46 63.48 60.46 63.45 113.41 32.88 166.36 63.45"/><polygon class="cls-12" points="166.36 124.63 166.36 185.77 113.41 155.2 113.41 94.35 113.41 94.07 113.41 94.06 166.36 124.63"/></g><path class="cls-8" d="M750.09,0H688.93L864,175.07V113.91Z"/><path class="cls-13" d="M756.69,52.46l15.72-15.72a.69.69,0,0,1,1.1,0L779.79,43a6.19,6.19,0,0,1,2.09,4.29,5.93,5.93,0,0,1-2,4.26l-1.07,1.07a3.88,3.88,0,0,1-4.94.81,3.86,3.86,0,0,1,.82,2.53,4,4,0,0,1-1.35,2.6l-1.57,1.57a5.93,5.93,0,0,1-4.26,2,6.15,6.15,0,0,1-4.27-2.07l-6.54-6.54A.69.69,0,0,1,756.69,52.46Zm5.83,1.39,2.93,2.93a2.53,2.53,0,0,0,1.59.89,2.17,2.17,0,0,0,1.54-.78l1.52-1.52a2.06,2.06,0,0,0,.76-1.54,2.74,2.74,0,0,0-.94-1.62L767,49.32a.36.36,0,0,0-.58,0l-4,4A.36.36,0,0,0,762.52,53.85Zm7.22-7.22,2.67,2.67a2.55,2.55,0,0,0,1.58.88,2.13,2.13,0,0,0,1.56-.77l1-1a2.17,2.17,0,0,0,.79-1.54,2.48,2.48,0,0,0-.86-1.57l-2.7-2.7a.36.36,0,0,0-.58,0L769.74,46A.36.36,0,0,0,769.74,46.63Z"/><path class="cls-13" d="M779.76,76.63l-8.55-8.55a.69.69,0,0,1,0-1.1l15.72-15.72a.69.69,0,0,1,1.1,0l8.56,8.56a.67.67,0,0,1,0,1.07l-1.78,1.78a.67.67,0,0,1-1.07,0l-5.47-5.47a.38.38,0,0,0-.6,0l-3.4,3.4a.38.38,0,0,0,0,.6l4.47,4.47a.69.69,0,0,1,0,1.1L787,68.55a.69.69,0,0,1-1.1,0l-4.47-4.47a.38.38,0,0,0-.6,0l-3.64,3.64a.38.38,0,0,0,0,.6l5.47,5.47a.67.67,0,0,1,0,1.07l-1.78,1.78A.67.67,0,0,1,779.76,76.63Z"/><path class="cls-13" d="M788.4,85.27l-2.2-2.2a.7.7,0,0,1,0-1.13l13.11-13.11a.36.36,0,0,0,0-.57l-3-3a.69.69,0,0,1,0-1.1l1.78-1.78a.69.69,0,0,1,1.1,0l9.89,9.89a.69.69,0,0,1,0,1.1l-1.78,1.78a.69.69,0,0,1-1.1,0l-3-3a.38.38,0,0,0-.6,0L789.5,85.27A.69.69,0,0,1,788.4,85.27Z"/><path class="cls-13" d="M796.53,93.4,794,90.89q-.47-.47.24-.86l19.86-11.59a1.06,1.06,0,0,1,1.33.24l3.48,3.48a1,1,0,0,1,.24,1.33l-11.59,19.86q-.39.71-.86.24l-2.51-2.51a.72.72,0,0,1-.27-.51,1.25,1.25,0,0,1,.27-.59l2.15-3.61-5.1-5.1-3.61,2.15a1.14,1.14,0,0,1-.6.26A.74.74,0,0,1,796.53,93.4ZM814,83.54l-9.45,5.68,3.87,3.87,5.68-9.45Z"/></svg>