<?xml version="1.0" encoding="utf-8"?>
<!-- Generator: Adobe Illustrator 21.1.0, SVG Export Plug-In . SVG Version: 6.00 Build 0)  -->
<svg version="1.1" id="Layer_1" xmlns="http://www.w3.org/2000/svg" xmlns:xlink="http://www.w3.org/1999/xlink" x="0px" y="0px"
	 viewBox="0 0 864 252" enable-background="new 0 0 864 252" xml:space="preserve">
<g id="XMLID_1_">
	<g>
		<polygon fill="#93C4CA" points="243.3,48 243.3,113 186.9,145.6 186.9,80.5 		"/>
		<polygon fill="#8CBAC0" points="130.6,48 130.6,48 130.6,48 186.9,15.4 243.3,48 186.9,80.5 		"/>
		<polygon fill="#5BB6C8" points="186.9,145.6 186.9,210.7 130.6,243.2 130.6,178.1 		"/>
		<polygon fill="#93C4CA" points="186.9,145.6 186.9,145.6 130.6,113.1 130.6,113.1 		"/>
		<polygon fill="#87B3B9" points="186.9,80.5 186.9,145.6 130.6,113.1 		"/>
		<polygon fill="#87B3B9" points="130.6,48 186.9,80.5 130.6,113.1 130.6,113 130.6,48 		"/>
		<polygon fill="#54A7B7" points="186.9,145.6 130.6,178.1 130.6,178.1 130.6,176.2 130.6,113.1 130.6,113.1 		"/>
		<polygon fill="#FDBA54" points="130.6,113.1 130.6,113.1 74.2,80.5 74.3,80.5 130.6,48 130.6,113 130.6,113.1 130.6,113.1 		"/>
		<polygon fill="#87B3B9" points="130.6,113.1 130.6,113.1 130.6,113.1 		"/>
		<polygon fill="#57AEBE" points="130.6,178.1 130.6,243.2 74.2,210.7 74.2,145.9 74.2,145.6 		"/>
		<polygon fill="#54A7B7" points="130.6,178.1 130.6,178.1 74.2,145.6 130.6,113.1 130.6,113.1 130.6,176.2 		"/>
		<polygon fill="#54A7B7" points="130.6,113.1 130.6,113.1 130.6,113.1 		"/>
		<polygon fill="#FDBA54" points="130.6,113.1 74.2,145.6 74.2,80.9 74.2,80.5 		"/>
		<polygon opacity="0.25" fill="#93C4CA" points="130.6,178.1 130.6,113.1 187,80.5 187,145.6 		"/>
		<polygon fill="#EFB050" points="130.6,48 74.3,80.5 17.9,48 17.9,48 17.9,48 74.3,15.4 		"/>
		<polygon opacity="0.25" fill="#50A6B7" points="130.6,113.1 130.6,178.1 74.3,145.6 74.3,80.8 74.3,80.5 74.3,80.5 		"/>
	</g>
</g>
<g>
	<defs>
		<rect id="SVGID_1_" x="271" y="8.8" width="579.3" height="233"/>
	</defs>
	<clipPath id="SVGID_2_">
		<use xlink:href="#SVGID_1_"  overflow="visible"/>
	</clipPath>
	<g clip-path="url(#SVGID_2_)">
		<rect x="271" y="23.8" fill="none" width="352" height="150"/>
		<path fill="#FFFFFF" d="M281.9,126.7V35.4c0-1.7,0.8-2.6,2.5-2.6h36.9c7.3,0,13,2,17.2,6.1c4.1,4,6.2,9.8,6.2,17.2v50
			c0,7.3-2.1,13-6.2,17.1c-4.2,4.1-9.9,6.1-17.2,6.1h-36.9C282.8,129.3,281.9,128.4,281.9,126.7z M298.1,116.5h21.1
			c7.2,0,10.8-3.7,10.8-11.1V56.7c0-7.4-3.6-11.1-10.8-11.1h-21.1c-1.1,0-1.6,0.5-1.6,1.5v67.8C296.5,116,297,116.5,298.1,116.5z"/>
		<path fill="#FFFFFF" d="M393.5,129.3h-5.8c-7.4,0-13.1-2-17.2-6.1c-4-4.1-6.1-9.8-6.1-17.1V76c0-7.4,2-13.1,6.1-17.2
			c4.1-4.1,9.8-6.1,17.2-6.1h33.6c1.8,0,2.7,0.9,2.7,2.5v71.4c0,1.7-0.9,2.5-2.7,2.5h-9.5c-1.7,0-2.5-0.8-2.5-2.5v-5.4h-0.6
			C406.3,126.6,401.2,129.3,393.5,129.3z M409.3,103.8V67c0-1-0.6-1.5-1.7-1.5h-17.9c-7.2,0-10.8,3.7-10.8,11.1v28.8
			c0,7.4,3.6,11.1,10.8,11.1h7.2C405.2,116.5,409.3,112.3,409.3,103.8z"/>
		<path fill="#FFFFFF" d="M447.2,65.5H440c-1,0-1.7-0.2-2-0.5c-0.4-0.3-0.5-1-0.5-1.9v-7.8c0-1.7,0.8-2.5,2.5-2.5h7.2
			c1,0,1.5-0.5,1.5-1.5V37.8c0-1.7,0.9-2.5,2.7-2.5h9.5c1.7,0,2.5,0.9,2.5,2.5v13.5c0,1,0.5,1.5,1.7,1.5H479c1.8,0,2.7,0.9,2.7,2.5
			v7.8c0,1.6-0.9,2.4-2.7,2.4h-13.9c-1.1,0-1.7,0.5-1.7,1.5v38.5c0,7.3,3.8,11,11.2,11h5.8c1.8,0,2.7,0.9,2.7,2.5v7.8
			c0,1.6-0.9,2.4-2.7,2.4h-8.1c-7.4,0-13.2-2-17.4-6c-4.2-4-6.3-9.6-6.3-17V67C448.7,66,448.2,65.5,447.2,65.5z"/>
		<path fill="#FFFFFF" d="M527.5,129.3h-5.8c-7.4,0-13.1-2-17.2-6.1c-4.1-4.1-6.1-9.8-6.1-17.1V76c0-7.4,2-13.1,6.1-17.2
			c4-4.1,9.8-6.1,17.2-6.1h33.6c1.8,0,2.7,0.9,2.7,2.5v71.4c0,1.7-0.9,2.5-2.7,2.5h-9.5c-1.7,0-2.5-0.8-2.5-2.5v-5.4h-0.6
			C540.2,126.6,535.2,129.3,527.5,129.3z M543.2,103.8V67c0-1-0.6-1.5-1.6-1.5h-17.9c-7.2,0-10.8,3.7-10.8,11.1v28.8
			c0,7.4,3.6,11.1,10.8,11.1h7.2C539.1,116.5,543.2,112.3,543.2,103.8z"/>
	</g>
	<g clip-path="url(#SVGID_2_)">
		<rect x="508.3" y="119.9" fill="none" width="352" height="150"/>
		<path fill="#FFFFFF" d="M563,128.9h9.5c1.7,0,2.5,0.8,2.5,2.4v70.8c0,7.3-2.1,13-6.1,17.1c-4.1,4.1-9.8,6.1-17.1,6.1h-15
			c-7.4,0-13.2-2-17.2-6.1c-4.1-4.1-6.1-9.8-6.1-17.1v-13.5c0-1.7,0.9-2.5,2.7-2.5h9.5c1.7,0,2.5,0.8,2.5,2.5v12.9
			c0,7.4,3.6,11.1,10.8,11.1h10.6c7.2,0,10.8-3.7,10.8-11.1v-70C560.3,129.7,561.2,128.9,563,128.9z"/>
		<path fill="#FFFFFF" d="M631.9,225.3h-13.2c-7.4,0-13.1-2-17.2-6.1c-4-4.1-6.1-9.8-6.1-17.1v-30c0-7.4,2-13.1,6.1-17.2
			c4-4.1,9.8-6.1,17.2-6.1h13.2c7.3,0,13,2,17.2,6.1c4.1,4,6.2,9.8,6.2,17.2v30c0,7.3-2.1,13-6.2,17.1
			C644.9,223.3,639.2,225.3,631.9,225.3z M620.8,212.6h9.2c7.2,0,10.8-3.6,10.8-10.9v-29.1c0-7.3-3.6-11-10.8-11h-9.2
			c-3.8,0-6.6,0.9-8.2,2.6c-1.7,1.8-2.5,4.5-2.5,8.3v29.1c0,3.8,0.8,6.6,2.5,8.3C614.2,211.7,617,212.6,620.8,212.6z"/>
		<path fill="#FFFFFF" d="M675.5,136.1v-13.6c0-1.6,0.8-2.4,2.4-2.4h9.8c1.6,0,2.4,0.8,2.4,2.4v13.6c0,1.7-0.8,2.6-2.4,2.6h-9.8
			C676.3,138.6,675.5,137.8,675.5,136.1z M675.5,222.8v-71.4c0-1.7,0.8-2.6,2.4-2.6h9.6c1.7,0,2.6,0.9,2.6,2.6v71.4
			c0,1-0.2,1.7-0.5,2c-0.4,0.4-1,0.5-1.9,0.5h-9.6C676.4,225.3,675.5,224.5,675.5,222.8z"/>
		<path fill="#FFFFFF" d="M724,225.3h-9.5c-1.7,0-2.5-0.8-2.5-2.5v-71.4c0-1.7,0.8-2.6,2.5-2.6h9.5c1.7,0,2.5,0.9,2.5,2.6v5.4h0.6
			c2.4-5.3,7.4-8,15.2-8h6.6c7.3,0,12.9,2,16.8,6c3.9,4,5.8,9.8,5.8,17.2v50.7c0,1.7-0.9,2.5-2.7,2.5h-9.5c-1.7,0-2.5-0.8-2.5-2.5
			v-50.1c0-7.4-3.7-11.1-11-11.1h-7c-8.2,0-12.3,4.3-12.3,12.8v48.5C726.5,224.5,725.7,225.3,724,225.3z"/>
		<path fill="#FFFFFF" d="M794,161.6h-7.2c-1,0-1.7-0.2-2-0.5c-0.4-0.3-0.5-1-0.5-1.9v-7.8c0-1.7,0.8-2.6,2.5-2.6h7.2
			c1,0,1.5-0.5,1.5-1.5v-13.5c0-1.7,0.9-2.5,2.7-2.5h9.5c1.7,0,2.5,0.8,2.5,2.5v13.5c0,1,0.5,1.5,1.6,1.5h14c1.8,0,2.7,0.9,2.7,2.6
			v7.8c0,1.6-0.9,2.4-2.7,2.4h-14c-1.1,0-1.6,0.5-1.6,1.5v38.6c0,7.3,3.8,10.9,11.2,10.9h5.8c1.8,0,2.7,0.9,2.7,2.6v7.8
			c0,1.6-0.9,2.4-2.7,2.4h-8.1c-7.4,0-13.2-2-17.4-6c-4.2-4-6.3-9.6-6.3-16.9v-39.3C795.5,162.1,795,161.6,794,161.6z"/>
	</g>
	<rect x="560.5" y="81.1" clip-path="url(#SVGID_2_)" fill="#93C4CA" width="45.5" height="45.5"/>
	<rect x="512.4" y="131.3" clip-path="url(#SVGID_2_)" fill="#5BB6C8" width="45.5" height="45.5"/>
	<g clip-path="url(#SVGID_2_)">
		<rect x="606" y="78.3" fill="none" width="293" height="51"/>
		<path fill="#5BB6C8" d="M620.7,113.5h-4.3c-2.3,0-4.1-0.7-5.4-2s-2-3.1-2-5.5V95.4c0-2.3,0.7-4.1,2-5.4c1.3-1.3,3.1-2,5.4-2h4.3
			c2.3,0,4.1,0.6,5.4,2c1.3,1.3,2,3.1,2,5.4v10.7c0,2.3-0.7,4.2-2,5.5C624.8,112.8,623,113.5,620.7,113.5z M616.8,110.3h3.5
			c2.8,0,4.2-1.4,4.2-4.3V95.5c0-2.9-1.4-4.3-4.2-4.3h-3.5c-2.8,0-4.2,1.4-4.2,4.3V106C612.6,108.8,614,110.3,616.8,110.3z"/>
		<path fill="#5BB6C8" d="M635.9,120.8h-2.2c-0.5,0-0.7-0.2-0.7-0.7V88.7c0-0.5,0.2-0.7,0.7-0.7h2.2c0.5,0,0.7,0.2,0.7,0.7v1.9h0.2
			c0.8-1.8,2.5-2.6,5.1-2.6h3c2.3,0,4,0.6,5.3,2c1.2,1.3,1.9,3.1,1.9,5.4v10.7c0,2.3-0.6,4.2-1.9,5.5s-3,2-5.3,2h-3
			c-2.6,0-4.3-0.9-5.1-2.7h-0.2v9.2C636.6,120.5,636.4,120.8,635.9,120.8z M641.3,110.3h3c2.8,0,4.2-1.5,4.2-4.3V95.5
			c0-2.9-1.4-4.3-4.2-4.3h-3c-1.5,0-2.6,0.4-3.5,1.2c-0.8,0.8-1.2,1.9-1.2,3.4v9.9c0,1.5,0.4,2.6,1.2,3.4
			C638.6,109.9,639.8,110.3,641.3,110.3z"/>
		<path fill="#5BB6C8" d="M674.5,113.5h-10.6c-2.3,0-4.1-0.7-5.4-2c-1.3-1.3-2-3.1-2-5.5V95.4c0-2.3,0.7-4.1,2-5.4
			c1.3-1.3,3.1-2,5.4-2h4.2c2.3,0,4.1,0.6,5.4,2c1.3,1.3,1.9,3.1,1.9,5.4v6.4c0,0.5-0.2,0.8-0.7,0.8h-14.2c-0.3,0-0.5,0.2-0.5,0.5v3
			c0,2.9,1.4,4.3,4.2,4.3h10.2c0.5,0,0.7,0.2,0.7,0.7v1.8C675.2,113.2,675,113.5,674.5,113.5z M660.6,99.8h10.8
			c0.3,0,0.5-0.2,0.5-0.5v-3.9c0-2.9-1.4-4.3-4.2-4.3h-3.4c-2.8,0-4.2,1.4-4.2,4.3v3.9C660.1,99.6,660.3,99.8,660.6,99.8z"/>
		<path fill="#5BB6C8" d="M683,113.5h-2.2c-0.5,0-0.7-0.2-0.7-0.7V88.7c0-0.5,0.2-0.7,0.7-0.7h2.2c0.5,0,0.7,0.2,0.7,0.7v1.9h0.2
			c0.8-1.8,2.5-2.6,5.1-2.6h2.8c2.3,0,4,0.6,5.3,2c1.3,1.3,1.9,3.1,1.9,5.4v17.4c0,0.5-0.2,0.7-0.7,0.7h-2.2c-0.5,0-0.7-0.2-0.7-0.7
			V95.5c0-2.9-1.4-4.3-4.2-4.3h-2.8c-1.5,0-2.6,0.4-3.4,1.2c-0.8,0.8-1.2,1.9-1.2,3.4v17C683.7,113.2,683.5,113.5,683,113.5z"/>
		<path fill="#5BB6C8" d="M724,113.5h-8.9c-0.5,0-0.7-0.2-0.7-0.7V111c0-0.4,0.2-0.6,0.7-0.6h8.4c2.6,0,3.9-1,3.9-2.9v-1
			c0-1.8-0.9-3-2.5-3.6l-5.9-2.5c-1.7-0.7-2.9-1.5-3.7-2.5c-0.7-0.9-1.1-2.2-1.1-3.8c0-4.1,2.2-6.1,6.8-6.1h8.2
			c0.5,0,0.7,0.2,0.7,0.7v1.8c0,0.4-0.2,0.6-0.7,0.6h-7.5c-1.2,0-2.1,0.2-2.7,0.8c-0.6,0.5-0.9,1.1-0.9,1.8v0.9c0,1.4,1,2.5,2.8,3.2
			l5.9,2.6c1.7,0.7,2.9,1.5,3.5,2.7c0.6,1.1,0.9,2.6,0.9,4.5C731.2,111.5,728.8,113.5,724,113.5z"/>
		<path fill="#5BB6C8" d="M746.7,113.5h-4.3c-2.3,0-4.1-0.7-5.4-2c-1.3-1.3-2-3.1-2-5.5V95.4c0-2.3,0.7-4.1,2-5.4
			c1.3-1.3,3.1-2,5.4-2h4.3c2.3,0,4.1,0.6,5.4,2c1.3,1.3,2,3.1,2,5.4v10.7c0,2.3-0.7,4.2-2,5.5C750.8,112.8,749,113.5,746.7,113.5z
			 M742.8,110.3h3.5c2.8,0,4.2-1.4,4.2-4.3V95.5c0-2.9-1.4-4.3-4.2-4.3h-3.5c-2.8,0-4.2,1.4-4.2,4.3V106
			C738.6,108.8,740,110.3,742.8,110.3z"/>
		<path fill="#5BB6C8" d="M768.8,113.5H766c-2.3,0-4-0.7-5.3-2s-1.9-3.1-1.9-5.5V88.7c0-0.5,0.2-0.7,0.7-0.7h2.2
			c0.5,0,0.7,0.2,0.7,0.7v17.2c0,2.9,1.4,4.3,4.1,4.3h2.9c1.5,0,2.6-0.4,3.5-1.2c0.8-0.8,1.2-1.9,1.2-3.4v-17c0-0.5,0.2-0.7,0.7-0.7
			h2.2c0.5,0,0.7,0.2,0.7,0.7v24.1c0,0.5-0.2,0.7-0.7,0.7h-2.2c-0.5,0-0.7-0.2-0.7-0.7v-2h-0.2C773.1,112.6,771.4,113.5,768.8,113.5
			z"/>
		<path fill="#5BB6C8" d="M786.1,113.5h-2.2c-0.5,0-0.7-0.2-0.7-0.7V88.7c0-0.5,0.2-0.7,0.7-0.7h2.2c0.5,0,0.7,0.2,0.7,0.7v2h0.2
			c0.3-0.7,1-1.4,1.9-1.9c0.9-0.5,2-0.8,3.3-0.8h2c0.4,0,0.6,0.2,0.6,0.7v1.8c0,0.2,0,0.4-0.1,0.5c-0.1,0.1-0.3,0.2-0.5,0.1h-2.7
			c-1.5,0-2.6,0.4-3.4,1.3c-0.8,0.9-1.2,2.1-1.2,3.7v16.5C786.8,113.2,786.6,113.5,786.1,113.5z"/>
		<path fill="#5BB6C8" d="M812.6,111v1.8c0,0.4-0.2,0.7-0.7,0.7h-7.2c-2.3,0-4.1-0.7-5.4-2c-1.3-1.3-2-3.1-2-5.5V95.4
			c0-2.3,0.7-4.1,2-5.4c1.3-1.3,3.1-2,5.4-2h7.2c0.5,0,0.7,0.2,0.7,0.7v1.8c0,0.4-0.2,0.7-0.7,0.7h-6.8c-2.8,0-4.2,1.4-4.2,4.3v10.4
			c0,2.9,1.4,4.3,4.2,4.3h6.8C812.4,110.3,812.6,110.5,812.6,111z"/>
		<path fill="#5BB6C8" d="M833.7,113.5h-10.6c-2.3,0-4.1-0.7-5.4-2c-1.3-1.3-2-3.1-2-5.5V95.4c0-2.3,0.7-4.1,2-5.4
			c1.3-1.3,3.1-2,5.4-2h4.2c2.3,0,4.1,0.6,5.4,2c1.3,1.3,2,3.1,2,5.4v6.4c0,0.5-0.2,0.8-0.7,0.8h-14.2c-0.3,0-0.5,0.2-0.5,0.5v3
			c0,2.9,1.4,4.3,4.2,4.3h10.2c0.5,0,0.7,0.2,0.7,0.7v1.8C834.4,113.2,834.2,113.5,833.7,113.5z M819.8,99.8h10.8
			c0.3,0,0.5-0.2,0.5-0.5v-3.9c0-2.9-1.4-4.3-4.2-4.3h-3.4c-2.8,0-4.2,1.4-4.2,4.3v3.9C819.3,99.6,819.5,99.8,819.8,99.8z"/>
	</g>
</g>
<g>
</g>
<g>
</g>
<g>
</g>
<g>
</g>
<g>
</g>
<g>
</g>
</svg>
